<svg width="32" height="28" viewBox="0 0 32 28" fill="none" xmlns="http://www.w3.org/2000/svg">
<path d="M23.877 11.7568C23.8763 11.7511 23.8759 11.7452 23.875 11.7395C23.8709 11.7109 23.8655 11.6824 23.8578 11.6543C23.8577 11.654 23.8576 11.6538 23.8575 11.6534C23.8503 11.6271 23.8411 11.6012 23.8307 11.5755C23.8277 11.5682 23.8245 11.5611 23.8213 11.5539C23.8131 11.5354 23.804 11.5172 23.7941 11.4992C23.7898 11.4914 23.7856 11.4835 23.781 11.4758C23.7785 11.4717 23.7765 11.4673 23.7739 11.4632C23.7634 11.4466 23.752 11.431 23.7404 11.4155C23.7382 11.4126 23.7364 11.4095 23.7343 11.4067C23.7166 11.3838 23.6975 11.3625 23.6775 11.3424C23.6738 11.3386 23.6697 11.3351 23.6658 11.3314C23.6484 11.3146 23.6304 11.299 23.6116 11.2842C23.6068 11.2804 23.6021 11.2767 23.5972 11.2731C23.572 11.2544 23.5461 11.237 23.519 11.222L13.1085 5.30444L19.1026 1.53003L29.1514 7.24189L24.9193 9.90681C24.589 10.1147 24.4899 10.5511 24.6978 10.8813C24.9057 11.2115 25.342 11.3107 25.6723 11.1027L30.9032 7.80889C31.1135 7.67654 31.2388 7.44342 31.2331 7.19497C31.2275 6.94652 31.0919 6.7194 30.8758 6.59659L19.4331 0.0923164C19.2068 -0.0364321 18.9279 -0.0300724 18.7074 0.10864L11.3615 4.73433C11.36 4.73525 11.3585 4.73624 11.357 4.73716L7.68626 7.04862C7.68457 7.04968 7.68287 7.05074 7.68125 7.0518L0.330355 11.6807C0.120061 11.813 -0.00522541 12.0461 0.000427651 12.2946C0.00601005 12.543 0.141613 12.7702 0.357701 12.893L11.8005 19.3972C11.9089 19.4589 12.0293 19.4896 12.1496 19.4896C12.2806 19.4896 12.4113 19.4532 12.5261 19.3809L17.7571 16.087C18.0873 15.8791 18.1865 15.4428 17.9785 15.1126C17.7707 14.7823 17.3343 14.6831 17.0041 14.8911L12.1311 17.9596L2.08224 12.2476L8.07632 8.47313L18.7938 14.5652V22.6336C18.7938 22.891 18.9337 23.1279 19.1589 23.2523C19.2654 23.3111 19.383 23.3403 19.5005 23.3403C19.6315 23.3403 19.7622 23.3039 19.877 23.2316L23.5524 20.9171C23.7579 20.7878 23.8826 20.562 23.8826 20.3192V11.8396C23.8826 11.8354 23.8819 11.8315 23.8817 11.8273C23.8813 11.8038 23.8797 11.7804 23.877 11.7568ZM20.2071 21.3537V14.1541C20.2071 13.8999 20.0706 13.6654 19.8496 13.5398L9.43306 7.61888L11.7517 6.15876L21.8005 11.8707L20.9207 12.4247C20.5904 12.6326 20.4912 13.0689 20.6992 13.3991C20.8335 13.6125 21.063 13.7293 21.2979 13.7293C21.4265 13.7293 21.5568 13.6942 21.6736 13.6206L22.4692 13.1197V19.9292L20.2071 21.3537Z" fill="#0065DD"/>
<path d="M30.1501 9.43949L24.9192 12.7333C24.5889 12.9412 24.4898 13.3776 24.6978 13.7078C24.832 13.9212 25.0616 14.038 25.2964 14.038C25.425 14.038 25.5553 14.0029 25.6722 13.9292L30.9031 10.6354C31.2334 10.4275 31.3325 9.99116 31.1246 9.66095C30.9167 9.33067 30.4804 9.23146 30.1501 9.43949Z" fill="#0065DD"/>
<path d="M17.0039 17.7176L12.1309 20.7861L1.05593 14.4909C0.716886 14.2981 0.285275 14.4165 0.0924348 14.756C-0.100405 15.0953 0.0182383 15.5267 0.357563 15.7195L11.8004 22.2238C11.9088 22.2855 12.0292 22.3161 12.1495 22.3161C12.2804 22.3161 12.4112 22.2797 12.526 22.2074L17.7569 18.9135C18.0872 18.7057 18.1863 18.2693 17.9784 17.9391C17.7706 17.6087 17.3341 17.5095 17.0039 17.7176Z" fill="#0065DD"/>
<path d="M30.1501 12.266L24.9192 15.5599C24.5889 15.7678 24.4898 16.2041 24.6978 16.5343C24.832 16.7477 25.0616 16.8645 25.2964 16.8645C25.425 16.8645 25.5553 16.8294 25.6722 16.7558L30.9031 13.462C31.2334 13.2541 31.3325 12.8177 31.1246 12.4875C30.9167 12.1572 30.4804 12.058 30.1501 12.266Z" fill="#0065DD"/>
<path d="M17.0039 20.5441L12.1309 23.6126L1.05593 17.3174C0.716886 17.1246 0.285275 17.2431 0.0924348 17.5825C-0.100405 17.9218 0.0182383 18.3532 0.357563 18.546L11.8004 25.0503C11.9088 25.112 12.0292 25.1427 12.1495 25.1427C12.2804 25.1427 12.4112 25.1063 12.526 25.034L17.7569 21.7401C18.0872 21.5322 18.1863 21.0958 17.9784 20.7656C17.7706 20.4352 17.3341 20.3361 17.0039 20.5441Z" fill="#0065DD"/>
<path d="M30.1501 15.0925L24.9192 18.3864C24.5889 18.5943 24.4898 19.0306 24.6978 19.3608C24.832 19.5742 25.0616 19.691 25.2964 19.691C25.425 19.691 25.5553 19.6559 25.6722 19.5823L30.9031 16.2884C31.2334 16.0805 31.3325 15.6442 31.1246 15.314C30.9167 14.9837 30.4804 14.8846 30.1501 15.0925Z" fill="#0065DD"/>
<path d="M17.0039 23.3706L12.1309 26.4391L1.05593 20.1439C0.716886 19.9512 0.285275 20.0696 0.0924348 20.4091C-0.100405 20.7483 0.0182383 21.1797 0.357563 21.3726L11.8004 27.8768C11.9088 27.9385 12.0292 27.9692 12.1495 27.9692C12.2804 27.9692 12.4112 27.9328 12.526 27.8605L17.7569 24.5666C18.0872 24.3587 18.1863 23.9224 17.9784 23.5922C17.7706 23.2618 17.3341 23.1626 17.0039 23.3706Z" fill="#0065DD"/>
</svg>
