<svg width="92" height="103" viewBox="0 0 92 103" fill="none" xmlns="http://www.w3.org/2000/svg">
<path d="M55.5859 86.7578H32.9453V103H15.2266V86.7578H0.8125V72.4844H15.2266V64.9609H0.8125V50.6875H15.2266V0.625H54.3906C65.6875 0.625 74.7109 3.57812 81.4609 9.48438C88.2109 15.3437 91.5859 23.1484 91.5859 32.8984C91.5859 42.8359 88.375 50.6406 81.9531 56.3125C75.5312 61.9375 66.6016 64.8203 55.1641 64.9609H32.9453V72.4844H55.5859V86.7578ZM32.9453 50.6875H54.1094C60.4844 50.6875 65.3594 49.2109 68.7344 46.2578C72.1094 43.3047 73.7969 38.8984 73.7969 33.0391C73.7969 27.7891 72.1328 23.5 68.8047 20.1719C65.5234 16.8438 60.9766 15.1094 55.1641 14.9688H32.9453V50.6875Z" fill="black"/>
</svg>
