<svg width="29" height="29" viewBox="0 0 29 29" fill="none" xmlns="http://www.w3.org/2000/svg">
<g clip-path="url(#clip0)">
<path d="M27.0667 1.44995H4.83333C3.76559 1.44995 2.9 2.31554 2.9 3.38328V18.85H0.483333C0.216412 18.85 0 19.0664 0 19.3333C0 20.401 0.865589 21.2666 1.93333 21.2666H15.95V27.0666C15.9501 27.3335 16.1665 27.5499 16.4335 27.5498C16.5616 27.5498 16.6844 27.4989 16.775 27.4083L19.3333 24.8501L21.8916 27.4083C21.9822 27.499 22.1051 27.55 22.2333 27.55C22.2969 27.5501 22.3598 27.5377 22.4184 27.5132C22.599 27.4384 22.7167 27.2621 22.7167 27.0666V21.2666H24.1667C25.2344 21.2666 26.1 20.401 26.1 19.3333V3.86662H28.5167C28.7836 3.86662 29 3.65021 29 3.38328C29 2.31554 28.1344 1.44995 27.0667 1.44995ZM25.1333 3.38328V18.85H23.2V19.8166H25.0033C24.8307 20.1156 24.5118 20.2998 24.1667 20.3H22.7167V19.8166H21.75V25.8999L19.6751 23.8249C19.4863 23.6362 19.1804 23.6362 18.9916 23.8249L16.9167 25.8999V19.8166H15.95V20.3H1.93333C1.58817 20.2998 1.26929 20.1156 1.09668 19.8166H3.38333H15.4667V18.85H3.86667V3.38328C3.86667 2.84938 4.29943 2.41662 4.83333 2.41662H25.4021C25.2281 2.70922 25.1353 3.0429 25.1333 3.38328ZM26.23 2.89995C26.4974 2.43788 27.0888 2.28008 27.5509 2.54754C27.6972 2.63218 27.8187 2.75374 27.9033 2.89995H26.23Z" fill="#0065DD" stroke="#0065DD" stroke-width="0.1"/>
<path d="M23.8897 16.5759L23.2705 15.4667L23.8921 14.3584C24.0231 14.1258 23.9407 13.8311 23.7082 13.7001C23.6965 13.6935 23.6844 13.6873 23.6722 13.6817L22.5185 13.1534L22.3696 11.8919C22.3381 11.6269 22.0977 11.4375 21.8326 11.469C21.8203 11.4705 21.808 11.4724 21.7959 11.4748L20.5498 11.7218L19.6881 10.7885C19.4952 10.5925 19.18 10.5901 18.984 10.783C18.9822 10.7848 18.9803 10.7867 18.9785 10.7885L18.1167 11.7218L16.8707 11.4748C16.6089 11.423 16.3546 11.5933 16.3028 11.8552C16.3004 11.8673 16.2984 11.8796 16.297 11.8919L16.1481 13.1534L14.9944 13.6827C14.7517 13.7938 14.645 14.0806 14.7561 14.3233C14.7618 14.3356 14.7679 14.3476 14.7745 14.3593L15.3961 15.4667L14.7745 16.5749C14.6435 16.8075 14.7259 17.1023 14.9584 17.2332C14.9701 17.2398 14.9822 17.246 14.9944 17.2516L16.1481 17.7809L16.297 19.0433C16.3285 19.3084 16.5689 19.4977 16.834 19.4662C16.8463 19.4648 16.8586 19.4629 16.8707 19.4604L18.1167 19.2135L18.9785 20.1468C19.1598 20.3427 19.4656 20.3545 19.6615 20.1733C19.6707 20.1648 19.6795 20.156 19.6881 20.1468L20.5498 19.2135L21.7959 19.4604C21.928 19.4874 22.0653 19.4572 22.1738 19.3773C22.2819 19.2977 22.3519 19.1767 22.3672 19.0433L22.516 17.7818L23.6698 17.2526C23.9125 17.1415 24.0192 16.8546 23.908 16.6119C23.9024 16.5996 23.8963 16.5876 23.8897 16.5759ZM22.2952 15.7025L22.7925 16.5899L21.8684 17.0138C21.7152 17.0841 21.6097 17.2292 21.59 17.3966L21.4711 18.4082L20.472 18.2105C20.3074 18.1763 20.137 18.2314 20.0235 18.3555L19.3333 19.1037L18.6431 18.3565C18.5516 18.2576 18.4231 18.2014 18.2883 18.2014C18.2568 18.2012 18.2254 18.2044 18.1946 18.211L17.1955 18.4087L17.0766 17.3971C17.0569 17.2297 16.9514 17.0846 16.7982 17.0143L15.8741 16.5904L16.3714 15.703C16.4546 15.5556 16.4566 15.3766 16.3714 15.2303V15.2322L15.8741 14.3448L16.7982 13.921C16.9514 13.8506 17.0569 13.7056 17.0766 13.5382L17.1955 12.5265L18.1946 12.7242C18.3591 12.758 18.5294 12.703 18.6431 12.5792L19.3333 11.8296L20.0235 12.5768C20.1369 12.701 20.3074 12.7561 20.472 12.7218L21.4711 12.5241L21.59 13.5357C21.6097 13.7032 21.7152 13.8482 21.8684 13.9185L22.7925 14.3424L22.2952 15.2298C22.2129 15.3766 22.2129 15.5557 22.2952 15.7025Z" fill="#0065DD" stroke="#0065DD" stroke-width="0.1"/>
<path d="M19.3333 13.05C17.9986 13.05 16.9166 14.1321 16.9166 15.4667C16.9182 16.8007 17.9993 17.8818 19.3333 17.8834C20.668 17.8834 21.75 16.8014 21.75 15.4667C21.75 14.1321 20.668 13.05 19.3333 13.05ZM19.3333 16.9167C18.5325 16.9167 17.8833 16.2675 17.8833 15.4667C17.8833 14.6659 18.5325 14.0167 19.3333 14.0167C20.1341 14.0167 20.7833 14.6659 20.7833 15.4667C20.7833 16.2675 20.1341 16.9167 19.3333 16.9167Z" fill="#0065DD" stroke="#0065DD" stroke-width="0.1"/>
<path d="M18.3666 4.3501H10.6333V5.31676H18.3666V4.3501Z" fill="#0065DD" stroke="#0065DD" stroke-width="0.1"/>
<path d="M23.2 7.25H5.80005V8.21667H23.2V7.25Z" fill="#0065DD" stroke="#0065DD" stroke-width="0.1"/>
<path d="M23.2 9.18335H5.80005V10.15H23.2V9.18335Z" fill="#0065DD" stroke="#0065DD" stroke-width="0.1"/>
<path d="M12.5667 15.4666H6.28333V16.4332H12.5667V15.4666Z" fill="#0065DD" stroke="#0065DD" stroke-width="0.1"/>
</g>
<defs>
<clipPath id="clip0">
<rect width="29" height="29" fill="white"/>
</clipPath>
</defs>
</svg>
