<svg width="27" height="27" viewBox="0 0 27 27" fill="none" xmlns="http://www.w3.org/2000/svg">
<g clip-path="url(#clip0)">
<path d="M0.778957 7.45599C0.769145 7.50933 0.763614 7.56339 0.76183 7.61745V8.72783C0.763257 9.18544 1.04745 9.59452 1.47616 9.75526V11.3891C1.47812 11.9361 1.90825 12.3856 2.45453 12.4115V21.8503C1.90825 21.8764 1.47812 22.326 1.47616 22.8728V24.5018C1.04656 24.6668 0.762544 25.0789 0.76183 25.5388V26.625C0.76183 26.8274 0.926319 26.9918 1.12881 26.9918H25.872C26.0745 26.9918 26.2388 26.8274 26.2388 26.625V25.5388C26.2381 25.0787 25.9541 24.6666 25.5246 24.5018V22.8631C25.5227 22.3161 25.0924 21.8666 24.5463 21.8407V12.4115C25.0924 12.3856 25.5227 11.9361 25.5246 11.3891V9.75526C25.9532 9.59452 26.2374 9.18544 26.2388 8.72783V7.62476C26.2372 7.5707 26.2315 7.51665 26.2217 7.46331C26.4061 7.54501 26.6218 7.46188 26.7035 7.27741C26.7852 7.09312 26.7021 6.87743 26.5178 6.79554L13.6692 0.0424156C13.562 -0.0141385 13.4339 -0.0141385 13.3266 0.0424156L0.478168 6.78823C0.298872 6.88296 0.230187 7.10471 0.324562 7.28401C0.41091 7.44778 0.605727 7.52164 0.778957 7.45599ZM2.20993 10.3911V9.82609H6.44132V10.3863L2.20993 10.3911ZM11.6316 12.414V21.8503C11.0853 21.8764 10.6552 22.326 10.6533 22.8728V24.4333H7.1701V22.8728C7.16813 22.326 6.738 21.8764 6.19173 21.8503V12.4115C6.738 12.3856 7.16813 11.9361 7.1701 11.3891V9.82609H10.6483V11.3868C10.6492 11.9346 11.0796 12.3853 11.6268 12.4115L11.6316 12.414ZM11.387 10.3911V9.82609H15.6186V10.3863L11.387 10.3911ZM20.8089 12.414V21.8503C20.2626 21.8764 19.8323 22.326 19.8303 22.8728V24.4333H16.3474V22.8728C16.3454 22.326 15.9151 21.8764 15.369 21.8503V12.4115C15.9151 12.3856 16.3454 11.9361 16.3474 11.3891V9.82609H19.8255V11.3868C19.8262 11.9346 20.2567 12.3853 20.8039 12.4115L20.8089 12.414ZM20.5643 10.3911V9.82609H24.7957V10.3863L20.5643 10.3911ZM24.7957 23.8733V24.4333H20.5593V23.8733H24.7957ZM15.6186 23.8733V24.4333H11.3822V23.8733H15.6186ZM11.9936 11.6851H11.6757C11.5135 11.6851 11.3822 11.5538 11.3822 11.3916V11.1249H15.6136V11.3916C15.6136 11.5538 15.4823 11.6851 15.3201 11.6851H11.9936ZM14.6377 12.4188V21.8455H12.3606V12.4188H14.6377ZM11.9936 22.5793H15.3201C15.4823 22.5793 15.6136 22.7106 15.6136 22.8728V23.1395H11.3822V22.8728C11.3822 22.7106 11.5135 22.5793 11.6757 22.5793H11.9936ZM6.4365 23.8733V24.4333H2.20494V23.8733H6.4365ZM2.20494 11.3989V11.1249H6.4365V11.3916C6.4365 11.5538 6.3052 11.6851 6.14285 11.6851H2.4911C2.33089 11.6811 2.20351 11.5493 2.20494 11.3891V11.3989ZM5.45813 12.4261V21.8455H3.18331V12.4188L5.45813 12.4261ZM2.20494 22.8803C2.20494 22.7179 2.33624 22.5866 2.49841 22.5866H6.14285C6.3052 22.5866 6.4365 22.7179 6.4365 22.8803V23.1468H2.20494V22.8803ZM25.505 25.5536V26.2726H1.49079V25.5536C1.49079 25.3442 1.66045 25.1744 1.8699 25.1744H25.1259C25.3323 25.1744 25.5011 25.3397 25.505 25.5462V25.5536ZM24.7909 22.8803V23.1468H20.5593V22.8803C20.5593 22.7179 20.6906 22.5866 20.8528 22.5866H24.5047C24.6612 22.5905 24.7869 22.7163 24.7909 22.8728V22.8803ZM21.5377 21.8528V12.4188H23.8148V21.8455L21.5377 21.8528ZM24.7909 11.3989C24.7909 11.5611 24.6596 11.6924 24.4974 11.6924H20.8553C20.6931 11.6924 20.5618 11.5611 20.5618 11.3989V11.1249H24.7932L24.7909 11.3989ZM13.4979 0.776191L24.4239 6.51919H2.57192L13.4979 0.776191ZM1.49079 7.62476C1.49079 7.42227 1.6551 7.25796 1.85759 7.25796H25.1382C25.3407 7.25796 25.505 7.42227 25.505 7.62476V8.73533C25.505 8.93781 25.3407 9.10212 25.1382 9.10212H1.85759C1.6551 9.10212 1.49079 8.93781 1.49079 8.73533V7.62476Z" fill="#0065DD" stroke="#0065DD" stroke-width="0.2"/>
</g>
<defs>
<clipPath id="clip0">
<rect width="27" height="27" fill="white"/>
</clipPath>
</defs>
</svg>
