<svg width="126" height="78" viewBox="0 0 126 78" fill="none" xmlns="http://www.w3.org/2000/svg">
<path d="M124.75 36.9522L117.48 32.5967L113.327 14.2865C112.221 9.41295 108.061 6.00936 103.211 6.00936H82.3197V2.58977C82.3197 1.15941 81.1958 0 79.8098 0H2.50991C1.12391 0 0 1.15941 0 2.58977V64.3214C0 65.7518 1.12391 66.9112 2.50991 66.9112H10.5766C11.7431 72.8258 16.8224 77.2908 22.8938 77.2908C28.9652 77.2908 34.0448 72.8258 35.2113 66.9112H86.0236V66.9114C87.1901 72.8261 92.2695 77.2911 98.3408 77.2911C104.412 77.2911 109.492 72.8261 110.658 66.9114H123.49C124.876 66.9114 126 65.752 126 64.3217V39.1919C126 38.2691 125.524 37.4159 124.75 36.9522ZM22.8938 72.1118C18.7311 72.1118 15.3444 68.617 15.3444 64.3219C15.3444 60.0268 18.7311 56.532 22.8938 56.532C27.0567 56.532 30.4435 60.0265 30.4435 64.3219C30.4435 68.6173 27.0567 72.1118 22.8938 72.1118ZM77.3001 52.4449H54.661C53.275 52.4449 52.1511 53.6043 52.1511 55.0347C52.1511 56.465 53.275 57.6244 54.661 57.6244H77.3001V61.7319H35.2113C34.0448 55.8173 28.9652 51.3523 22.8938 51.3523C16.8224 51.3523 11.7431 55.817 10.5766 61.7319H5.01981V48.3374H77.3001V52.4449V52.4449ZM77.3001 8.59938V43.1579H5.01981V5.17979H77.3001V8.59938V8.59938ZM96.8798 11.1894H103.211C105.718 11.1891 107.868 12.9483 108.439 15.467L112.118 31.6856H96.88V11.1894H96.8798ZM98.3408 72.1118C94.3472 72.1118 91.0698 68.8948 90.8099 64.8407C90.8431 64.6731 90.8603 64.4997 90.8603 64.3219C90.8603 64.1442 90.8429 63.9707 90.8099 63.8032C91.0698 59.749 94.3472 56.532 98.3408 56.532C102.504 56.532 105.89 60.0265 105.89 64.3219C105.89 68.6173 102.504 72.1118 98.3408 72.1118ZM120.98 49.4405H116.205V46.6988H120.98V49.4405ZM120.98 41.5193H113.695C112.309 41.5193 111.185 42.6787 111.185 44.1091V52.0302C111.185 53.4606 112.309 54.62 113.695 54.62H120.98V61.7319H110.658C109.492 55.8173 104.412 51.3523 98.3408 51.3523C92.2695 51.3523 87.1901 55.817 86.0236 61.7319H82.3199V11.1891H91.86V34.2754C91.86 35.7057 92.9839 36.8652 94.3699 36.8652H114.607L120.98 40.6834V41.5193H120.98Z" fill="black"/>
</svg>
