<svg width="8" height="15" viewBox="0 0 8 15" fill="none" xmlns="http://www.w3.org/2000/svg">
<path d="M0.244361 7.8309H1.90509V14.1946C1.90509 14.3203 2.01447 14.4221 2.14945 14.4221H4.96528C5.10026 14.4221 5.20964 14.3203 5.20964 14.1946V7.86088H7.11878C7.24292 7.86088 7.34736 7.77418 7.36153 7.65941L7.65149 5.31661C7.65946 5.25215 7.63752 5.1876 7.59118 5.13924C7.5448 5.09084 7.47844 5.06314 7.40879 5.06314H5.20974V3.59456C5.20974 3.15185 5.46583 2.92736 5.97097 2.92736C6.04296 2.92736 7.40879 2.92736 7.40879 2.92736C7.54378 2.92736 7.65315 2.82551 7.65315 2.69991V0.549443C7.65315 0.423801 7.54378 0.321996 7.40879 0.321996H5.42727C5.41329 0.321359 5.38226 0.320312 5.33651 0.320312C4.99269 0.320312 3.79762 0.383133 2.8536 1.19148C1.80764 2.08726 1.95303 3.15981 1.98778 3.34577V5.06309H0.244361C0.109376 5.06309 0 5.1649 0 5.29054V7.60341C0 7.72905 0.109376 7.8309 0.244361 7.8309Z" fill="#666666"/>
</svg>
