<svg width="18" height="14" viewBox="0 0 18 14" fill="none" xmlns="http://www.w3.org/2000/svg">
<path d="M16.7628 1.50844C16.4934 1.61968 16.2163 1.71356 15.9333 1.78978C16.2684 1.43701 16.5239 1.02193 16.6799 0.567718C16.7148 0.465906 16.6786 0.354463 16.5887 0.287876C16.4989 0.221237 16.3741 0.213255 16.2753 0.267792C15.6741 0.599647 15.0256 0.838136 14.3456 0.977594C13.6606 0.354567 12.7302 0 11.7684 0C9.73812 0 8.08638 1.53738 8.08638 3.42706C8.08638 3.57589 8.09651 3.7239 8.11653 3.86985C5.5972 3.66396 3.25503 2.51137 1.64666 0.674989C1.58935 0.609535 1.50104 0.574259 1.41064 0.581005C1.32018 0.587597 1.2389 0.635078 1.1932 0.708051C0.866991 1.22906 0.694536 1.82495 0.694536 2.43124C0.694536 3.25702 1.01129 4.04051 1.57081 4.65273C1.40068 4.59788 1.23558 4.52934 1.07801 4.44792C0.993414 4.40409 0.890173 4.40476 0.806131 4.44962C0.722034 4.49447 0.669307 4.57697 0.667094 4.66714C0.666706 4.68234 0.666706 4.69753 0.666706 4.71293C0.666706 5.94554 1.37943 7.05528 2.46911 7.66013C2.37549 7.65142 2.28193 7.63881 2.18898 7.62228C2.09316 7.60523 1.99462 7.63649 1.93 7.70452C1.86526 7.7725 1.84385 7.86726 1.87367 7.95377C2.27701 9.12588 3.31545 9.98801 4.57083 10.2509C3.52962 10.8579 2.33892 11.1758 1.08896 11.1758C0.828152 11.1758 0.565845 11.1616 0.309126 11.1333C0.181596 11.1192 0.0596546 11.1893 0.0162226 11.3021C-0.0272093 11.4151 0.018823 11.541 0.12732 11.6057C1.73309 12.5641 3.58982 13.0706 5.49667 13.0706C9.24532 13.0706 11.5904 11.4252 12.8975 10.0449C14.5274 8.32379 15.4622 6.04565 15.4622 3.79471C15.4622 3.70067 15.4607 3.60571 15.4576 3.51106C16.1007 3.06009 16.6543 2.51431 17.1048 1.887C17.1733 1.79173 17.1659 1.66582 17.0866 1.57812C17.0074 1.49036 16.8755 1.46199 16.7628 1.50844Z" fill="#666666"/>
</svg>
