<svg width="20" height="11" viewBox="0 0 20 11" fill="none" xmlns="http://www.w3.org/2000/svg">
<path fill-rule="evenodd" clip-rule="evenodd" d="M17.081 6.64716C17.7394 7.24543 18.4342 7.80831 19.0247 8.46691C19.2855 8.75958 19.5325 9.0616 19.7214 9.40125C19.9891 9.88407 19.7466 10.4154 19.2815 10.4442L16.3901 10.443C15.6444 10.5006 15.0495 10.2212 14.5493 9.7466C14.149 9.36708 13.7783 8.96315 13.3934 8.57082C13.2356 8.41047 13.0704 8.25958 12.8731 8.14032C12.4784 7.90185 12.1358 7.97486 11.9102 8.35803C11.6805 8.74775 11.6284 9.17929 11.6058 9.61362C11.5748 10.2473 11.369 10.4139 10.6851 10.443C9.22354 10.5071 7.83643 10.3013 6.54785 9.61501C5.41179 9.01001 4.53082 8.15591 3.76403 7.18899C2.27109 5.30618 1.12779 3.23727 0.100233 1.11041C-0.131061 0.631225 0.0380896 0.374001 0.60612 0.364897C1.54936 0.347841 2.49247 0.349056 3.43682 0.363683C3.82018 0.368903 4.07397 0.573565 4.22199 0.910663C4.73231 2.07861 5.35675 3.18981 6.14055 4.2198C6.34929 4.49402 6.56213 4.76824 6.86522 4.96125C7.20052 5.17495 7.45581 5.10412 7.61355 4.75646C7.71364 4.53602 7.75746 4.29858 7.78003 4.06248C7.85475 3.2502 7.8646 2.43932 7.73353 1.6299C7.65306 1.12473 7.34737 0.797711 6.80581 0.702117C6.52946 0.653379 6.5706 0.557663 6.70441 0.410843C6.93682 0.157624 7.15539 0 7.59112 0H10.8588C11.3732 0.0945017 11.4875 0.309604 11.5579 0.791399L11.5607 4.16985C11.5551 4.35636 11.6608 4.90984 12.0217 5.03329C12.3106 5.12118 12.501 4.90608 12.6743 4.73558C13.4567 3.9627 14.0151 3.0493 14.5139 2.1035C14.7353 1.68762 14.9256 1.25571 15.1101 0.824174C15.2468 0.503948 15.4613 0.346385 15.8488 0.353365L18.9937 0.355974C19.087 0.355974 19.1813 0.357249 19.2716 0.371634C19.8016 0.455696 19.9468 0.667885 19.7831 1.14956C19.5252 1.90527 19.0235 2.53504 18.5328 3.16772C18.0084 3.84319 17.4474 4.49554 16.9273 5.17501C16.4495 5.7955 16.4874 6.10826 17.081 6.64716Z" fill="#666666"/>
</svg>
