<svg width="16" height="11" viewBox="0 0 16 11" fill="none" xmlns="http://www.w3.org/2000/svg">
<path d="M15.0452 0.880334C14.4801 0.255056 13.4368 0 11.4442 0H4.21111C2.17292 0 1.11189 0.271509 0.5489 0.937212C0 1.58628 0 2.54262 0 3.86622V6.38901C0 8.95325 0.651266 10.2552 4.21111 10.2552H11.4442C13.1722 10.2552 14.1297 10.0301 14.7491 9.47831C15.3844 8.91245 15.6554 7.98854 15.6554 6.38901V3.86622C15.6554 2.47037 15.613 1.50839 15.0452 0.880334ZM10.0508 5.47591L6.76633 7.0737C6.6929 7.10943 6.6126 7.12715 6.5324 7.12715C6.4416 7.12715 6.351 7.1044 6.27076 7.05918C6.11966 6.97395 6.02739 6.82151 6.02739 6.65708V3.47175C6.02739 3.3076 6.1194 3.1553 6.2702 3.07003C6.42105 2.98476 6.60866 2.97893 6.76517 3.05461L10.0497 4.64211C10.2168 4.72287 10.3217 4.88344 10.322 5.05863C10.3222 5.23397 10.2177 5.39478 10.0508 5.47591Z" fill="#666666"/>
</svg>
