<svg width="24" height="25" viewBox="0 0 24 25" fill="none" xmlns="http://www.w3.org/2000/svg">
<path d="M22.4337 0.526993H16.7861C16.515 0.527971 16.254 0.632985 16.0538 0.821595C15.8149 0.629307 15.5203 0.525541 15.2173 0.526993H8.3146C8.01161 0.525541 7.71695 0.629307 7.47804 0.821595C7.27789 0.632985 7.01687 0.527971 6.74581 0.526993H1.09816C0.806906 0.526993 0.527586 0.646371 0.321642 0.858866C0.115698 1.07136 0 1.35957 0 1.66008V7.48738C0 7.63618 0.0284046 7.78352 0.0835921 7.92099C0.13878 8.05847 0.219669 8.18338 0.321642 8.28859C0.423615 8.39381 0.544675 8.47727 0.677909 8.53422C0.811143 8.59116 0.953943 8.62047 1.09816 8.62047H6.74581C7.01687 8.61949 7.27789 8.51447 7.47804 8.32587C7.71695 8.51815 8.01161 8.62192 8.3146 8.62047H15.2173C15.5203 8.62192 15.8149 8.51815 16.0538 8.32587C16.254 8.51447 16.515 8.61949 16.7861 8.62047H22.4337C22.5779 8.62047 22.7207 8.59116 22.854 8.53422C22.9872 8.47727 23.1083 8.39381 23.2102 8.28859C23.3122 8.18338 23.3931 8.05847 23.4483 7.92099C23.5035 7.78352 23.5319 7.63618 23.5319 7.48738V1.66008C23.5319 1.35957 23.4162 1.07136 23.2102 0.858866C23.0043 0.646371 22.725 0.526993 22.4337 0.526993ZM19.2177 1.33634H20.0021V4.00719L19.8844 3.88862C19.811 3.81349 19.7118 3.77134 19.6083 3.77134C19.5049 3.77134 19.4057 3.81349 19.3322 3.88862L19.2177 4.00719V1.33634ZM11.3737 1.33634H12.1581V4.00719L12.0405 3.88862C11.967 3.81349 11.8678 3.77134 11.7644 3.77134C11.661 3.77134 11.5617 3.81349 11.4883 3.88862L11.3737 4.00719V1.33634ZM3.52978 1.33634H4.31418V4.00719L4.19652 3.88862C4.12307 3.81349 4.02383 3.77134 3.92041 3.77134C3.81699 3.77134 3.71776 3.81349 3.64431 3.88862L3.52978 4.00719V1.33634ZM6.74581 7.81112H1.09816C1.01494 7.81112 0.935135 7.77701 0.876294 7.7163C0.817453 7.65559 0.784396 7.57324 0.784396 7.48738V1.66008C0.784396 1.57422 0.817453 1.49187 0.876294 1.43116C0.935135 1.37045 1.01494 1.33634 1.09816 1.33634H2.74539V4.9784C2.74571 5.05795 2.76874 5.13564 2.81161 5.20176C2.85448 5.26788 2.91529 5.31949 2.98643 5.35015C3.05758 5.3808 3.1359 5.38915 3.21161 5.37413C3.28732 5.35912 3.35707 5.32141 3.41212 5.26572L3.92198 4.74653L4.43184 5.26572C4.4869 5.32141 4.55664 5.35912 4.63235 5.37413C4.70807 5.38915 4.78639 5.3808 4.85753 5.35015C4.92867 5.31949 4.98948 5.26788 5.03235 5.20176C5.07522 5.13564 5.09826 5.05795 5.09858 4.9784V1.33634H6.74581C6.82902 1.33634 6.90883 1.37045 6.96767 1.43116C7.02651 1.49187 7.05957 1.57422 7.05957 1.66008V7.48738C7.05957 7.57324 7.02651 7.65559 6.96767 7.7163C6.90883 7.77701 6.82902 7.81112 6.74581 7.81112ZM15.2173 7.81112H8.3146C8.03732 7.81112 7.84396 7.64075 7.84396 7.48738V1.66008C7.84396 1.50671 8.03732 1.33634 8.3146 1.33634H10.5894V4.9784C10.5897 5.05795 10.6127 5.13564 10.6556 5.20176C10.6984 5.26788 10.7593 5.31949 10.8304 5.35015C10.9015 5.3808 10.9799 5.38915 11.0556 5.37413C11.1313 5.35912 11.201 5.32141 11.2561 5.26572L11.7659 4.74653L12.2758 5.26572C12.3309 5.32141 12.4006 5.35912 12.4763 5.37413C12.552 5.38915 12.6304 5.3808 12.7015 5.35015C12.7726 5.31949 12.8334 5.26788 12.8763 5.20176C12.9192 5.13564 12.9422 5.05795 12.9425 4.9784V1.33634H15.2173C15.4946 1.33634 15.6879 1.50671 15.6879 1.66008V7.48738C15.6879 7.64075 15.4946 7.81112 15.2173 7.81112ZM22.7475 7.48738C22.7475 7.57324 22.7144 7.65559 22.6556 7.7163C22.5968 7.77701 22.517 7.81112 22.4337 7.81112H16.7861C16.7029 7.81112 16.6231 7.77701 16.5642 7.7163C16.5054 7.65559 16.4723 7.57324 16.4723 7.48738V1.66008C16.4723 1.57422 16.5054 1.49187 16.5642 1.43116C16.6231 1.37045 16.7029 1.33634 16.7861 1.33634H18.4333V4.9784C18.4336 5.05795 18.4567 5.13564 18.4995 5.20176C18.5424 5.26788 18.6032 5.31949 18.6744 5.35015C18.7455 5.3808 18.8238 5.38915 18.8995 5.37413C18.9752 5.35912 19.045 5.32141 19.1001 5.26572L19.6099 4.74653L20.1198 5.26572C20.1748 5.32141 20.2446 5.35912 20.3203 5.37413C20.396 5.38915 20.4743 5.3808 20.5455 5.35015C20.6166 5.31949 20.6774 5.26788 20.7203 5.20176C20.7631 5.13564 20.7862 5.05795 20.7865 4.9784V1.33634H22.4337C22.517 1.33634 22.5968 1.37045 22.6556 1.43116C22.7144 1.49187 22.7475 1.57422 22.7475 1.66008V7.48738Z" fill="#0065DD"/>
<path d="M23.1397 9.42981H0.392198C0.288181 9.42981 0.188424 9.47244 0.114872 9.54833C0.0413207 9.62422 0 9.72715 0 9.83447V11.4531C0 11.5604 0.0413207 11.6634 0.114872 11.7393C0.188424 11.8152 0.288181 11.8578 0.392198 11.8578H23.1397C23.2437 11.8578 23.3435 11.8152 23.417 11.7393C23.4906 11.6634 23.5319 11.5604 23.5319 11.4531V9.83447C23.5319 9.72715 23.4906 9.62422 23.417 9.54833C23.3435 9.47244 23.2437 9.42981 23.1397 9.42981ZM22.7475 11.0485H0.784396V10.2391H22.7475V11.0485Z" fill="#0065DD"/>
<path d="M22.4337 12.6671H16.7861C16.515 12.6681 16.254 12.7731 16.0538 12.9617C15.8149 12.7694 15.5203 12.6657 15.2173 12.6671H8.3146C8.01161 12.6657 7.71695 12.7694 7.47804 12.9617C7.27789 12.7731 7.01687 12.6681 6.74581 12.6671H1.09816C0.806906 12.6671 0.527586 12.7865 0.321642 12.999C0.115698 13.2115 0 13.4997 0 13.8002V19.6277C0 19.9283 0.115698 20.2165 0.321642 20.429C0.527586 20.6415 0.806906 20.7608 1.09816 20.7608H6.74581C7.01687 20.7599 7.27789 20.6549 7.47804 20.4662C7.71695 20.6585 8.01161 20.7623 8.3146 20.7608H15.2173C15.5203 20.7623 15.8149 20.6585 16.0538 20.4662C16.254 20.6549 16.515 20.7599 16.7861 20.7608H22.4337C22.725 20.7608 23.0043 20.6415 23.2102 20.429C23.4162 20.2165 23.5319 19.9283 23.5319 19.6277V13.8002C23.5319 13.4997 23.4162 13.2115 23.2102 12.999C23.0043 12.7865 22.725 12.6671 22.4337 12.6671ZM19.2177 13.4765H20.0021V16.1474L19.8844 16.0289C19.811 15.9537 19.7118 15.9116 19.6083 15.9116C19.5049 15.9116 19.4057 15.9537 19.3322 16.0289L19.2177 16.1474V13.4765ZM11.3737 13.4765H12.1581V16.1474L12.0405 16.0289C11.967 15.9537 11.8678 15.9116 11.7644 15.9116C11.661 15.9116 11.5617 15.9537 11.4883 16.0289L11.3737 16.1474V13.4765ZM3.52978 13.4765H4.31418V16.1474L4.19652 16.0289C4.12307 15.9537 4.02383 15.9116 3.92041 15.9116C3.81699 15.9116 3.71776 15.9537 3.64431 16.0289L3.52978 16.1474V13.4765ZM6.74581 19.9515H1.09816C1.01494 19.9515 0.935135 19.9174 0.876294 19.8567C0.817453 19.7959 0.784396 19.7136 0.784396 19.6277V13.8002C0.784396 13.7144 0.817453 13.632 0.876294 13.5713C0.935135 13.5106 1.01494 13.4765 1.09816 13.4765H2.74539V17.1187C2.74571 17.1982 2.76874 17.2759 2.81161 17.342C2.85448 17.4082 2.91529 17.4598 2.98643 17.4904C3.05758 17.5211 3.1359 17.5294 3.21161 17.5144C3.28732 17.4994 3.35707 17.4617 3.41212 17.406L3.92198 16.8868L4.43184 17.406C4.4869 17.4617 4.55664 17.4994 4.63235 17.5144C4.70807 17.5294 4.78639 17.5211 4.85753 17.4904C4.92867 17.4598 4.98948 17.4082 5.03235 17.342C5.07522 17.2759 5.09826 17.1982 5.09858 17.1187V13.4765H6.74581C6.82902 13.4765 6.90883 13.5106 6.96767 13.5713C7.02651 13.632 7.05957 13.7144 7.05957 13.8002V19.6277C7.05957 19.7136 7.02651 19.7959 6.96767 19.8567C6.90883 19.9174 6.82902 19.9515 6.74581 19.9515ZM15.2173 19.9515H8.3146C8.03732 19.9515 7.84396 19.7811 7.84396 19.6277V13.8002C7.84396 13.6469 8.03732 13.4765 8.3146 13.4765H10.5894V17.1187C10.5897 17.1982 10.6127 17.2759 10.6556 17.342C10.6984 17.4082 10.7593 17.4598 10.8304 17.4904C10.9015 17.5211 10.9799 17.5294 11.0556 17.5144C11.1313 17.4994 11.201 17.4617 11.2561 17.406L11.7659 16.8868L12.2758 17.406C12.3309 17.4617 12.4006 17.4994 12.4763 17.5144C12.552 17.5294 12.6304 17.5211 12.7015 17.4904C12.7726 17.4598 12.8334 17.4082 12.8763 17.342C12.9192 17.2759 12.9422 17.1982 12.9425 17.1187V13.4765H15.2173C15.4946 13.4765 15.6879 13.6469 15.6879 13.8002V19.6277C15.6879 19.7811 15.4946 19.9515 15.2173 19.9515ZM22.7475 19.6277C22.7475 19.7136 22.7144 19.7959 22.6556 19.8567C22.5968 19.9174 22.517 19.9515 22.4337 19.9515H16.7861C16.7029 19.9515 16.6231 19.9174 16.5642 19.8567C16.5054 19.7959 16.4723 19.7136 16.4723 19.6277V13.8002C16.4723 13.7144 16.5054 13.632 16.5642 13.5713C16.6231 13.5106 16.7029 13.4765 16.7861 13.4765H18.4333V17.1187C18.4336 17.1982 18.4567 17.2759 18.4995 17.342C18.5424 17.4082 18.6032 17.4598 18.6744 17.4904C18.7455 17.5211 18.8238 17.5294 18.8995 17.5144C18.9752 17.4994 19.045 17.4617 19.1001 17.406L19.6099 16.8868L20.1198 17.406C20.1748 17.4617 20.2446 17.4994 20.3203 17.5144C20.396 17.5294 20.4743 17.5211 20.5455 17.4904C20.6166 17.4598 20.6774 17.4082 20.7203 17.342C20.7631 17.2759 20.7862 17.1982 20.7865 17.1187V13.4765H22.4337C22.517 13.4765 22.5968 13.5106 22.6556 13.5713C22.7144 13.632 22.7475 13.7144 22.7475 13.8002V19.6277Z" fill="#0065DD"/>
<path d="M23.1397 21.5702H0.392198C0.288181 21.5702 0.188424 21.6128 0.114872 21.6887C0.0413207 21.7646 0 21.8675 0 21.9749V24.4029C0 24.5103 0.0413207 24.6132 0.114872 24.6891C0.188424 24.765 0.288181 24.8076 0.392198 24.8076H23.1397C23.2437 24.8076 23.3435 24.765 23.417 24.6891C23.4906 24.6132 23.5319 24.5103 23.5319 24.4029V21.9749C23.5319 21.8675 23.4906 21.7646 23.417 21.6887C23.3435 21.6128 23.2437 21.5702 23.1397 21.5702ZM22.7475 23.9983H0.784396V22.3795H22.7475V23.9983Z" fill="#0065DD"/>
</svg>
