<svg width="29" height="18" viewBox="0 0 29 18" fill="none" xmlns="http://www.w3.org/2000/svg">
<path d="M28.4049 8.76306L26.7496 7.77131L25.8039 3.60213C25.5521 2.49243 24.6049 1.71744 23.5005 1.71744H18.7437V0.938805C18.7437 0.613117 18.4878 0.349121 18.1722 0.349121H0.571491C0.255907 0.349121 0 0.613117 0 0.938805V14.995C0 15.3206 0.255907 15.5846 0.571491 15.5846H2.40823C2.67383 16.9314 3.83037 17.9481 5.21279 17.9481C6.59521 17.9481 7.7518 16.9314 8.01741 15.5846H19.5871V15.5847C19.8527 16.9315 21.0092 17.9481 22.3917 17.9481C23.7741 17.9481 24.9307 16.9315 25.1963 15.5847H28.118C28.4336 15.5847 28.6895 15.3207 28.6895 14.995V9.27302C28.6894 9.06291 28.5811 8.86864 28.4049 8.76306ZM5.21279 16.7688C4.26497 16.7688 3.49383 15.9731 3.49383 14.9951C3.49383 14.0171 4.26497 13.2213 5.21279 13.2213C6.16066 13.2213 6.9318 14.017 6.9318 14.9951C6.9318 15.9731 6.16066 16.7688 5.21279 16.7688ZM17.6008 12.2907H12.446C12.1304 12.2907 11.8745 12.5547 11.8745 12.8804C11.8745 13.2061 12.1304 13.4701 12.446 13.4701H17.6008V14.4053H8.01741C7.7518 13.0586 6.59521 12.0419 5.21279 12.0419C3.83037 12.0419 2.67383 13.0585 2.40823 14.4053H1.14298V11.3554H17.6008V12.2907ZM17.6008 2.30718V10.1761H1.14298V1.52855H17.6008V2.30718ZM22.059 2.89692H23.5006C24.0714 2.89686 24.561 3.29743 24.691 3.87092L25.5287 7.56386H22.059V2.89692H22.059ZM22.3917 16.7688C21.4823 16.7688 20.7361 16.0363 20.6769 15.1132C20.6845 15.075 20.6884 15.0355 20.6884 14.9951C20.6884 14.9546 20.6844 14.9151 20.6769 14.877C20.7361 13.9538 21.4823 13.2213 22.3917 13.2213C23.3395 13.2213 24.1107 14.017 24.1107 14.9951C24.1107 15.9731 23.3395 16.7688 22.3917 16.7688ZM27.5464 11.6066H26.4592V10.9823H27.5464V11.6066ZM27.5464 9.80297H25.8877C25.5721 9.80297 25.3162 10.067 25.3162 10.3927V12.1963C25.3162 12.522 25.5721 12.786 25.8877 12.786H27.5464V14.4053H25.1963C24.9307 13.0586 23.7741 12.0419 22.3917 12.0419C21.0092 12.0419 19.8527 13.0585 19.5871 14.4053H18.7438V2.89686H20.916V8.15355C20.916 8.47923 21.1719 8.74323 21.4875 8.74323H26.0954L27.5464 9.61264V9.80297H27.5464Z" fill="#0065DD"/>
</svg>
