<svg width="24" height="25" viewBox="0 0 24 25" fill="none" xmlns="http://www.w3.org/2000/svg">
<path d="M5.45471 4.54697V5.35095H6.23394V4.54697C6.23394 4.32497 6.40839 4.14497 6.62355 4.14497H8.18199C8.82748 4.14497 9.35083 3.60499 9.35083 2.939V2.13501H8.57161V2.939C8.57161 3.16099 8.39716 3.34099 8.18199 3.34099H6.62355C5.97806 3.34099 5.45471 3.88097 5.45471 4.54697Z" fill="#0065DD"/>
<path d="M4.28562 2.93912C4.28562 2.7171 4.46007 2.53709 4.67523 2.53709H6.23366C6.87914 2.53709 7.40248 1.99707 7.40248 1.33102V0.526978H6.62327V1.33102C6.62327 1.55304 6.44882 1.73305 6.23366 1.73305H4.67523C4.02975 1.73305 3.50641 2.27307 3.50641 2.93912V3.74316H4.28562V2.93912Z" fill="#0065DD"/>
<path d="M10.5195 8.16522V8.96924H11.2987V8.16522C11.2987 7.94321 11.4732 7.76321 11.6883 7.76321H13.2468C13.8922 7.76321 14.4156 7.22321 14.4156 6.55719V5.75317H13.6364V6.55719C13.6364 6.7792 13.4619 6.9592 13.2468 6.9592H11.6883C11.0429 6.9592 10.5195 7.4992 10.5195 8.16522Z" fill="#0065DD"/>
<path d="M8.57153 6.5571V7.36108H9.35076V6.5571C9.35076 6.3351 9.52521 6.15511 9.74037 6.15511H11.2988C11.9443 6.15511 12.4677 5.61512 12.4677 4.94913V4.14514H11.6884V4.94913C11.6884 5.17113 11.514 5.35112 11.2988 5.35112H9.74037C9.09489 5.35112 8.57153 5.8911 8.57153 6.5571Z" fill="#0065DD"/>
<path d="M22.987 15.8034H19.3719L18.6811 13.6664C18.6281 13.5023 18.4793 13.3915 18.3117 13.3913H15.974C15.7589 13.3913 15.5844 13.5713 15.5844 13.7934V15.8034H14.6966L14.0058 13.6664C13.9527 13.5023 13.804 13.3915 13.6364 13.3913H12.8571V10.1753C12.8571 9.95331 12.6827 9.77331 12.4675 9.77331H7.79221V6.55728C7.79221 6.33527 7.61776 6.15527 7.4026 6.15527H1.94805C1.73289 6.15527 1.55844 6.33527 1.55844 6.55728V10.5508L0.00342431 22.5844C0.00114144 22.6019 0 22.6198 0 22.6374V24.2455C0 24.4675 0.17445 24.6475 0.38961 24.6475H22.987C23.2022 24.6475 23.3766 24.4675 23.3766 24.2455V16.2054C23.3766 15.9834 23.2022 15.8034 22.987 15.8034ZM0.779221 22.6639L2.33424 10.6303C2.33652 10.6128 2.33766 10.595 2.33766 10.5773V6.95928H7.01299V10.5773C7.01299 10.595 7.01413 10.6128 7.01641 10.6303L8.57143 22.6639V23.8435H0.779221V22.6639ZM10.9091 13.7934V23.8435H9.35065V22.6374C9.35065 22.6198 9.34951 22.6019 9.34722 22.5844L7.79563 10.5773H12.0779V13.3913H11.2987C11.0835 13.3913 10.9091 13.5713 10.9091 13.7934ZM22.5974 23.8435H11.6883V14.1954H13.3554L14.0461 16.3324C14.0992 16.4965 14.248 16.6072 14.4156 16.6074H15.974C16.1892 16.6074 16.3636 16.4274 16.3636 16.2054V14.1954H18.0307L18.7215 16.3324C18.7745 16.4965 18.9233 16.6072 19.0909 16.6074H22.5974V23.8435Z" fill="#0065DD"/>
<path d="M14.4156 17.4114H12.8571C12.642 17.4114 12.4675 17.5914 12.4675 17.8134V20.2254C12.4675 20.4474 12.642 20.6274 12.8571 20.6274H14.4156C14.6308 20.6274 14.8052 20.4474 14.8052 20.2254V17.8134C14.8052 17.5914 14.6308 17.4114 14.4156 17.4114ZM14.026 19.8234H13.2468V18.2154H14.026V19.8234Z" fill="#0065DD"/>
<path d="M17.9221 17.4114H16.3636C16.1484 17.4114 15.974 17.5914 15.974 17.8134V20.2254C15.974 20.4474 16.1484 20.6274 16.3636 20.6274H17.9221C18.1372 20.6274 18.3117 20.4474 18.3117 20.2254V17.8134C18.3117 17.5914 18.1372 17.4114 17.9221 17.4114ZM17.5325 19.8234H16.7532V18.2154H17.5325V19.8234Z" fill="#0065DD"/>
<path d="M19.87 20.6274H21.4284C21.6436 20.6274 21.818 20.4474 21.818 20.2254V17.8134C21.818 17.5914 21.6436 17.4114 21.4284 17.4114H19.87C19.6548 17.4114 19.4803 17.5914 19.4803 17.8134V20.2254C19.4803 20.4474 19.6548 20.6274 19.87 20.6274ZM20.2596 18.2154H21.0388V19.8234H20.2596V18.2154Z" fill="#0065DD"/>
<path d="M13.6364 4.14514H14.4156V4.94849H13.6364V4.14514Z" fill="#0065DD"/>
</svg>
