<svg width="33" height="21" viewBox="0 0 33 21" fill="none" xmlns="http://www.w3.org/2000/svg">
<mask id="path-1-outside-1" maskUnits="userSpaceOnUse" x="0" y="-0.799805" width="33" height="22" fill="black">
<rect fill="white" y="-0.799805" width="33" height="22"/>
<path d="M3.51671 10.9782C3.55125 10.9782 3.58634 10.9741 3.62143 10.9657C3.86754 10.9062 4.02035 10.6522 3.96274 10.3982C3.91972 10.2086 3.83026 9.81414 3.95597 9.64451C4.04555 9.52361 4.28355 9.45026 4.62602 9.43785C5.98597 9.38861 6.40301 8.74018 6.80626 8.1131C7.02235 7.77711 7.24577 7.42972 7.65262 7.10437C8.05325 6.78406 8.22497 6.77808 8.2528 6.77971C8.27806 6.80742 8.45699 7.04405 8.3909 8.08482C8.35618 8.63074 8.45833 9.0319 8.70316 9.31104C9.0457 9.70162 9.54464 9.71919 9.94551 9.73335C10.1259 9.73971 10.2963 9.74576 10.4198 9.78127C10.8091 9.8931 11.1506 9.85778 11.425 9.82938C11.5941 9.81187 11.7689 9.7938 11.806 9.83567C11.9889 10.0414 12.1976 10.1413 12.4267 10.136C12.8586 10.1237 13.1512 9.75564 13.5942 9.19845C13.6347 9.14751 13.6768 9.09468 13.7205 9.04003C13.7444 9.01006 13.7618 8.99419 13.7715 8.98638C13.8348 9.00099 13.9751 9.08902 14.0701 9.14864C14.4085 9.36084 14.9199 9.6816 15.5568 9.40001C16.2578 9.09009 16.4391 8.86032 16.7824 8.37013C16.9067 8.19275 17.0613 7.97192 17.2968 7.6824C17.7113 7.17237 18.3112 7.02409 18.5588 7.14221C18.5979 7.16091 18.7172 7.21783 18.6608 7.55855C18.5802 8.04553 18.6712 8.41206 18.9311 8.64781C19.3816 9.05627 20.084 8.83375 20.5968 8.67123C20.7141 8.63408 20.8471 8.59196 20.9052 8.58295C20.9496 8.57886 21.0831 8.61242 21.1716 8.63496C21.6153 8.74805 22.5386 8.98298 22.9968 7.63209C23.306 6.72052 23.5324 6.68621 24.2044 6.58439C24.2758 6.57356 24.3497 6.56235 24.4263 6.5497C25.9168 6.30362 26.1952 5.29666 26.419 4.48747C26.4825 4.25771 26.5425 4.04072 26.626 3.84207C26.7622 3.5176 27.0139 3.35105 27.3325 3.14024C27.7417 2.86942 28.2511 2.53242 28.4657 1.77947C28.5686 1.41841 28.8634 1.21144 29.0218 1.15817C29.0172 1.25029 28.9876 1.41451 28.8897 1.66235C28.5454 2.53425 28.4746 3.01563 28.6371 3.37939C28.7859 3.71248 29.0838 3.81436 29.2618 3.87519C29.3305 3.89867 29.3953 3.92084 29.4267 3.94313C29.4267 3.94313 29.4295 3.94565 29.4346 3.9515C29.6026 4.14638 29.8919 4.16376 30.0808 3.99035C30.2696 3.817 30.2865 3.51848 30.1184 3.32366C30.0664 3.26328 30.01 3.21127 29.9507 3.16883C29.8082 3.06701 29.6648 3.01802 29.5497 2.97867C29.5248 2.97017 29.4947 2.95984 29.4697 2.95039C29.4711 2.85727 29.5054 2.60628 29.7373 2.01874C30.0048 1.34147 30.004 0.828983 29.7352 0.495575C29.5362 0.248808 29.2222 0.150077 28.8737 0.224377C28.3874 0.328083 27.7895 0.804112 27.5875 1.51299C27.4692 1.92769 27.2047 2.10286 26.8383 2.34522C26.4609 2.59495 26.0332 2.87798 25.786 3.46659C25.6787 3.72211 25.6075 3.97952 25.5387 4.22843C25.3326 4.97377 25.1965 5.46616 24.2817 5.61716C24.2091 5.62919 24.139 5.63976 24.0714 5.64997C23.3276 5.76268 22.625 5.86909 22.1327 7.32016C21.9496 7.86041 21.82 7.82742 21.3909 7.71804C21.1925 7.66754 20.9874 7.61534 20.7705 7.64878C20.6437 7.66842 20.4973 7.7147 20.3281 7.76835C20.1557 7.82294 19.7169 7.96172 19.5502 7.93477C19.546 7.89976 19.5441 7.83207 19.563 7.71748C19.6722 7.05796 19.4404 6.52249 18.9432 6.28498C18.2545 5.95598 17.223 6.30318 16.5954 7.0754C16.3389 7.39106 16.1735 7.62712 16.0406 7.81684C15.7605 8.21674 15.6939 8.31175 15.1963 8.53182C15.0111 8.61374 14.8633 8.54076 14.5457 8.34154C14.2316 8.14452 13.5782 7.7346 13.0148 8.43838C12.9704 8.49385 12.9277 8.54757 12.8865 8.59932C12.7311 8.7949 12.5455 9.02838 12.427 9.1409C12.0888 8.81133 11.672 8.85453 11.3337 8.88947C11.1049 8.91315 10.889 8.9355 10.6654 8.87128C10.4367 8.80554 10.2029 8.79729 9.97682 8.78929C9.73662 8.78086 9.46439 8.77122 9.38188 8.67715C9.3507 8.64157 9.28064 8.51866 9.30432 8.14653C9.35338 7.3745 9.34222 6.3062 8.6815 5.94389C8.04574 5.59537 7.32778 6.16913 7.09192 6.35771C6.56619 6.77814 6.27644 7.22873 6.04357 7.59079C5.68243 8.15232 5.48355 8.46162 4.59392 8.49379C3.95469 8.51696 3.49548 8.71103 3.22886 9.07063C2.84037 9.59476 2.99647 10.2827 3.07147 10.6134C3.12084 10.8312 3.30892 10.9782 3.51671 10.9782ZM31.3333 8.02135C31.2045 7.85676 31.0782 7.70835 30.956 7.56478C30.4016 6.91314 30.236 6.66832 30.3965 6.26162C30.4331 6.16931 30.4653 6.07033 30.4923 5.96757C30.5585 5.71589 30.4145 5.45641 30.1706 5.38802C29.9269 5.31983 29.6752 5.46824 29.609 5.71998C29.5916 5.78578 29.5714 5.84799 29.5489 5.90504C29.1612 6.88676 29.7239 7.54822 30.2681 8.18784C30.3841 8.32422 30.5042 8.46527 30.6211 8.61475C31.0238 9.12906 31.2916 9.97011 31.327 10.3709C30.3801 10.1169 29.8516 9.66396 29.7547 9.02265L29.7294 8.85232C29.6178 8.09559 29.5024 7.3131 28.8595 7.14731C28.4556 7.04323 27.9346 7.18157 27.5923 7.48393C27.2916 7.74971 27.1458 8.12071 27.1817 8.52842C27.1929 8.65549 27.2094 8.78879 27.2269 8.9299C27.2881 9.42242 27.3806 10.1667 27.1143 10.3546C26.4558 10.8195 26.3852 11.5426 26.3103 12.3081C26.2941 12.4737 26.2774 12.645 26.2544 12.8222C26.1892 13.3276 26.365 13.5957 26.524 13.7317C26.9247 14.0743 27.4991 13.8784 27.9606 13.7208C28.0633 13.6858 28.1602 13.6527 28.2316 13.6343C28.3974 13.5915 28.6314 13.8936 28.9669 14.5857C29.0649 14.7882 29.1739 14.9619 29.27 15.1151C29.5875 15.6212 29.8382 16.0208 29.5564 17.3854C29.4335 17.9804 29.255 18.175 29.1977 18.2068C29.1542 18.1775 29.0749 18.0431 29.123 17.8818C29.3263 17.2004 29.3214 16.6718 29.1085 16.3106C28.9697 16.0754 28.7541 15.9244 28.4847 15.8739C28.2128 15.823 28.0415 15.8618 27.8528 16.0172C27.8051 16.0564 27.6783 16.1608 27.039 16.2734C26.3215 16.3998 26.1827 16.2823 25.8471 15.9985C25.6947 15.8696 25.5049 15.7091 25.2417 15.5525C24.7958 15.2872 24.4724 15.3591 24.2794 15.4662C23.7145 15.78 23.6348 16.6727 23.5516 18.1033C23.5399 18.3047 23.4981 18.4451 23.4337 18.4988C23.2881 18.6203 22.8243 18.5474 22.4516 18.4889C22.0092 18.4193 21.5079 18.3406 21.05 18.4486C20.4273 18.5955 19.9775 18.4283 19.616 18.2939C19.4012 18.2141 19.2157 18.1452 19.0175 18.1452C18.5393 18.1452 18.4071 18.6244 18.3507 18.829C18.331 18.9003 18.2953 19.0298 18.2654 19.0711C18.2428 19.0746 18.159 19.0802 17.9765 19.014C17.0503 18.6782 16.4971 19.0363 16.131 19.2732C15.9338 19.4009 15.816 19.4731 15.6902 19.4731C15.2781 19.4731 14.291 19.3651 14.0289 18.3646C13.7662 17.3615 13.0087 17.2851 12.6018 17.2441C12.5572 17.2396 12.5034 17.2342 12.4585 17.2278C12.295 16.2449 11.3041 16.1972 10.0613 16.1376C9.24055 16.0982 8.86244 16.3263 8.75589 16.925C8.75217 16.9457 8.74759 16.9717 8.74344 16.9898C8.72757 16.9981 8.69639 17.0116 8.64202 17.0256C8.06466 17.1744 7.47095 16.4215 7.3993 16.1931C7.27738 15.8042 6.85246 15.1923 5.37675 15.4642C4.55517 15.6156 4.50196 16.4441 4.4734 16.8892C4.46919 16.9547 4.46376 17.0394 4.45601 17.1096C3.89983 17.1595 3.64273 17.7597 3.46887 18.1891C3.34609 17.7554 3.09997 17.1734 2.35132 16.7465C2.15811 16.6363 1.92542 16.4546 1.91426 16.2148C1.90828 16.0849 1.9657 15.9735 2.00982 15.9188C2.34717 15.9276 3.34493 15.8959 3.76063 15.2461C3.93504 14.9735 4.06478 14.5021 3.69222 13.8041C3.50609 13.4555 3.44336 13.0967 3.50042 12.7071C3.53819 12.4492 3.36616 12.2085 3.11627 12.1695C2.86649 12.1308 2.63313 12.3081 2.59536 12.5659C2.50834 13.1601 2.60762 13.73 2.89047 14.2598C3.00563 14.4756 3.04536 14.6497 2.99678 14.7257C2.86789 14.9272 2.26125 15.0014 1.98718 14.9733C1.55787 14.9291 1.18867 15.3599 1.0593 15.7879C0.980636 16.0482 0.8094 16.9463 1.90858 17.5731C2.45335 17.8838 2.54879 18.274 2.64113 18.6515C2.71448 18.9512 2.8253 19.4043 3.29574 19.5014C3.88195 19.6224 4.13313 19 4.29936 18.5882C4.36447 18.4271 4.48225 18.1355 4.56591 18.0535C4.8113 18.0689 4.97783 17.9725 5.07523 17.887C5.34172 17.6532 5.36565 17.2805 5.38676 16.9516C5.41642 16.4899 5.45554 16.4091 5.53768 16.394C6.20065 16.2718 6.49723 16.3843 6.52842 16.4839C6.73132 17.1309 7.73988 18.2317 8.86403 17.9418C9.53652 17.7684 9.61732 17.3139 9.65619 17.0954C9.65637 17.0945 9.6565 17.0935 9.65668 17.0926C9.71423 17.0822 9.82419 17.0716 10.0187 17.0809C10.5985 17.1088 11.1004 17.1391 11.3715 17.2289C11.548 17.2873 11.5522 17.3301 11.5622 17.4335C11.6263 18.0947 12.225 18.155 12.5128 18.184C12.8932 18.2223 13.0513 18.2522 13.1453 18.6109C13.5844 20.2872 15.2042 20.4175 15.6902 20.4175C16.0855 20.4175 16.3804 20.2266 16.6174 20.0732C16.9459 19.8605 17.1629 19.7201 17.673 19.905C18.0842 20.054 18.4168 20.0556 18.6897 19.9098C19.0281 19.729 19.1469 19.3849 19.214 19.1487C19.2457 19.1602 19.2772 19.1719 19.3058 19.1825C19.7295 19.3399 20.3697 19.5777 21.254 19.3693C21.5423 19.3013 21.9345 19.3629 22.3139 19.4225C22.9215 19.5179 23.5496 19.6165 24.0092 19.2332C24.2838 19.0042 24.4372 18.643 24.4653 18.1599C24.4975 17.6053 24.5558 16.603 24.7026 16.3284C24.7228 16.3369 24.7497 16.3501 24.7842 16.3707C24.9826 16.4887 25.1271 16.6109 25.2669 16.7291C25.7485 17.1364 26.1426 17.3894 27.1931 17.2045C27.874 17.0845 28.1595 16.9483 28.3364 16.8226C28.3645 16.9005 28.3871 17.1378 28.2481 17.6041C28.1161 18.0468 28.2265 18.5377 28.5294 18.8549C28.7796 19.1167 29.1217 19.2149 29.4451 19.1175C29.7805 19.0165 30.2272 18.6681 30.4514 17.5823C30.8121 15.8358 30.4188 15.2086 30.0383 14.6021C29.9471 14.4565 29.8608 14.3191 29.7854 14.1634C29.4788 13.5306 28.9653 12.4718 28.0095 12.7181C27.905 12.7451 27.7923 12.7835 27.6729 12.8242C27.5445 12.868 27.3083 12.9486 27.1587 12.9715C27.1595 12.9639 27.1604 12.9557 27.1616 12.9471C27.1864 12.7549 27.2039 12.5759 27.2208 12.4028C27.2903 11.6926 27.3367 11.3419 27.631 11.1341C28.3594 10.6199 28.2296 9.57373 28.1347 8.80982C28.1182 8.67753 28.1028 8.5526 28.093 8.44285C28.084 8.34003 28.1122 8.26774 28.1875 8.20119C28.3188 8.0852 28.5214 8.04944 28.6137 8.05951C28.7051 8.18727 28.7763 8.67022 28.8241 8.99431L28.8499 9.16798C28.9653 9.93214 29.491 10.9301 31.3401 11.3448C31.6595 11.4166 31.9467 11.2981 32.1082 11.0281C32.5326 10.319 31.8476 8.67835 31.3333 8.02135Z"/>
</mask>
<path d="M3.51671 10.9782C3.55125 10.9782 3.58634 10.9741 3.62143 10.9657C3.86754 10.9062 4.02035 10.6522 3.96274 10.3982C3.91972 10.2086 3.83026 9.81414 3.95597 9.64451C4.04555 9.52361 4.28355 9.45026 4.62602 9.43785C5.98597 9.38861 6.40301 8.74018 6.80626 8.1131C7.02235 7.77711 7.24577 7.42972 7.65262 7.10437C8.05325 6.78406 8.22497 6.77808 8.2528 6.77971C8.27806 6.80742 8.45699 7.04405 8.3909 8.08482C8.35618 8.63074 8.45833 9.0319 8.70316 9.31104C9.0457 9.70162 9.54464 9.71919 9.94551 9.73335C10.1259 9.73971 10.2963 9.74576 10.4198 9.78127C10.8091 9.8931 11.1506 9.85778 11.425 9.82938C11.5941 9.81187 11.7689 9.7938 11.806 9.83567C11.9889 10.0414 12.1976 10.1413 12.4267 10.136C12.8586 10.1237 13.1512 9.75564 13.5942 9.19845C13.6347 9.14751 13.6768 9.09468 13.7205 9.04003C13.7444 9.01006 13.7618 8.99419 13.7715 8.98638C13.8348 9.00099 13.9751 9.08902 14.0701 9.14864C14.4085 9.36084 14.9199 9.6816 15.5568 9.40001C16.2578 9.09009 16.4391 8.86032 16.7824 8.37013C16.9067 8.19275 17.0613 7.97192 17.2968 7.6824C17.7113 7.17237 18.3112 7.02409 18.5588 7.14221C18.5979 7.16091 18.7172 7.21783 18.6608 7.55855C18.5802 8.04553 18.6712 8.41206 18.9311 8.64781C19.3816 9.05627 20.084 8.83375 20.5968 8.67123C20.7141 8.63408 20.8471 8.59196 20.9052 8.58295C20.9496 8.57886 21.0831 8.61242 21.1716 8.63496C21.6153 8.74805 22.5386 8.98298 22.9968 7.63209C23.306 6.72052 23.5324 6.68621 24.2044 6.58439C24.2758 6.57356 24.3497 6.56235 24.4263 6.5497C25.9168 6.30362 26.1952 5.29666 26.419 4.48747C26.4825 4.25771 26.5425 4.04072 26.626 3.84207C26.7622 3.5176 27.0139 3.35105 27.3325 3.14024C27.7417 2.86942 28.2511 2.53242 28.4657 1.77947C28.5686 1.41841 28.8634 1.21144 29.0218 1.15817C29.0172 1.25029 28.9876 1.41451 28.8897 1.66235C28.5454 2.53425 28.4746 3.01563 28.6371 3.37939C28.7859 3.71248 29.0838 3.81436 29.2618 3.87519C29.3305 3.89867 29.3953 3.92084 29.4267 3.94313C29.4267 3.94313 29.4295 3.94565 29.4346 3.9515C29.6026 4.14638 29.8919 4.16376 30.0808 3.99035C30.2696 3.817 30.2865 3.51848 30.1184 3.32366C30.0664 3.26328 30.01 3.21127 29.9507 3.16883C29.8082 3.06701 29.6648 3.01802 29.5497 2.97867C29.5248 2.97017 29.4947 2.95984 29.4697 2.95039C29.4711 2.85727 29.5054 2.60628 29.7373 2.01874C30.0048 1.34147 30.004 0.828983 29.7352 0.495575C29.5362 0.248808 29.2222 0.150077 28.8737 0.224377C28.3874 0.328083 27.7895 0.804112 27.5875 1.51299C27.4692 1.92769 27.2047 2.10286 26.8383 2.34522C26.4609 2.59495 26.0332 2.87798 25.786 3.46659C25.6787 3.72211 25.6075 3.97952 25.5387 4.22843C25.3326 4.97377 25.1965 5.46616 24.2817 5.61716C24.2091 5.62919 24.139 5.63976 24.0714 5.64997C23.3276 5.76268 22.625 5.86909 22.1327 7.32016C21.9496 7.86041 21.82 7.82742 21.3909 7.71804C21.1925 7.66754 20.9874 7.61534 20.7705 7.64878C20.6437 7.66842 20.4973 7.7147 20.3281 7.76835C20.1557 7.82294 19.7169 7.96172 19.5502 7.93477C19.546 7.89976 19.5441 7.83207 19.563 7.71748C19.6722 7.05796 19.4404 6.52249 18.9432 6.28498C18.2545 5.95598 17.223 6.30318 16.5954 7.0754C16.3389 7.39106 16.1735 7.62712 16.0406 7.81684C15.7605 8.21674 15.6939 8.31175 15.1963 8.53182C15.0111 8.61374 14.8633 8.54076 14.5457 8.34154C14.2316 8.14452 13.5782 7.7346 13.0148 8.43838C12.9704 8.49385 12.9277 8.54757 12.8865 8.59932C12.7311 8.7949 12.5455 9.02838 12.427 9.1409C12.0888 8.81133 11.672 8.85453 11.3337 8.88947C11.1049 8.91315 10.889 8.9355 10.6654 8.87128C10.4367 8.80554 10.2029 8.79729 9.97682 8.78929C9.73662 8.78086 9.46439 8.77122 9.38188 8.67715C9.3507 8.64157 9.28064 8.51866 9.30432 8.14653C9.35338 7.3745 9.34222 6.3062 8.6815 5.94389C8.04574 5.59537 7.32778 6.16913 7.09192 6.35771C6.56619 6.77814 6.27644 7.22873 6.04357 7.59079C5.68243 8.15232 5.48355 8.46162 4.59392 8.49379C3.95469 8.51696 3.49548 8.71103 3.22886 9.07063C2.84037 9.59476 2.99647 10.2827 3.07147 10.6134C3.12084 10.8312 3.30892 10.9782 3.51671 10.9782ZM31.3333 8.02135C31.2045 7.85676 31.0782 7.70835 30.956 7.56478C30.4016 6.91314 30.236 6.66832 30.3965 6.26162C30.4331 6.16931 30.4653 6.07033 30.4923 5.96757C30.5585 5.71589 30.4145 5.45641 30.1706 5.38802C29.9269 5.31983 29.6752 5.46824 29.609 5.71998C29.5916 5.78578 29.5714 5.84799 29.5489 5.90504C29.1612 6.88676 29.7239 7.54822 30.2681 8.18784C30.3841 8.32422 30.5042 8.46527 30.6211 8.61475C31.0238 9.12906 31.2916 9.97011 31.327 10.3709C30.3801 10.1169 29.8516 9.66396 29.7547 9.02265L29.7294 8.85232C29.6178 8.09559 29.5024 7.3131 28.8595 7.14731C28.4556 7.04323 27.9346 7.18157 27.5923 7.48393C27.2916 7.74971 27.1458 8.12071 27.1817 8.52842C27.1929 8.65549 27.2094 8.78879 27.2269 8.9299C27.2881 9.42242 27.3806 10.1667 27.1143 10.3546C26.4558 10.8195 26.3852 11.5426 26.3103 12.3081C26.2941 12.4737 26.2774 12.645 26.2544 12.8222C26.1892 13.3276 26.365 13.5957 26.524 13.7317C26.9247 14.0743 27.4991 13.8784 27.9606 13.7208C28.0633 13.6858 28.1602 13.6527 28.2316 13.6343C28.3974 13.5915 28.6314 13.8936 28.9669 14.5857C29.0649 14.7882 29.1739 14.9619 29.27 15.1151C29.5875 15.6212 29.8382 16.0208 29.5564 17.3854C29.4335 17.9804 29.255 18.175 29.1977 18.2068C29.1542 18.1775 29.0749 18.0431 29.123 17.8818C29.3263 17.2004 29.3214 16.6718 29.1085 16.3106C28.9697 16.0754 28.7541 15.9244 28.4847 15.8739C28.2128 15.823 28.0415 15.8618 27.8528 16.0172C27.8051 16.0564 27.6783 16.1608 27.039 16.2734C26.3215 16.3998 26.1827 16.2823 25.8471 15.9985C25.6947 15.8696 25.5049 15.7091 25.2417 15.5525C24.7958 15.2872 24.4724 15.3591 24.2794 15.4662C23.7145 15.78 23.6348 16.6727 23.5516 18.1033C23.5399 18.3047 23.4981 18.4451 23.4337 18.4988C23.2881 18.6203 22.8243 18.5474 22.4516 18.4889C22.0092 18.4193 21.5079 18.3406 21.05 18.4486C20.4273 18.5955 19.9775 18.4283 19.616 18.2939C19.4012 18.2141 19.2157 18.1452 19.0175 18.1452C18.5393 18.1452 18.4071 18.6244 18.3507 18.829C18.331 18.9003 18.2953 19.0298 18.2654 19.0711C18.2428 19.0746 18.159 19.0802 17.9765 19.014C17.0503 18.6782 16.4971 19.0363 16.131 19.2732C15.9338 19.4009 15.816 19.4731 15.6902 19.4731C15.2781 19.4731 14.291 19.3651 14.0289 18.3646C13.7662 17.3615 13.0087 17.2851 12.6018 17.2441C12.5572 17.2396 12.5034 17.2342 12.4585 17.2278C12.295 16.2449 11.3041 16.1972 10.0613 16.1376C9.24055 16.0982 8.86244 16.3263 8.75589 16.925C8.75217 16.9457 8.74759 16.9717 8.74344 16.9898C8.72757 16.9981 8.69639 17.0116 8.64202 17.0256C8.06466 17.1744 7.47095 16.4215 7.3993 16.1931C7.27738 15.8042 6.85246 15.1923 5.37675 15.4642C4.55517 15.6156 4.50196 16.4441 4.4734 16.8892C4.46919 16.9547 4.46376 17.0394 4.45601 17.1096C3.89983 17.1595 3.64273 17.7597 3.46887 18.1891C3.34609 17.7554 3.09997 17.1734 2.35132 16.7465C2.15811 16.6363 1.92542 16.4546 1.91426 16.2148C1.90828 16.0849 1.9657 15.9735 2.00982 15.9188C2.34717 15.9276 3.34493 15.8959 3.76063 15.2461C3.93504 14.9735 4.06478 14.5021 3.69222 13.8041C3.50609 13.4555 3.44336 13.0967 3.50042 12.7071C3.53819 12.4492 3.36616 12.2085 3.11627 12.1695C2.86649 12.1308 2.63313 12.3081 2.59536 12.5659C2.50834 13.1601 2.60762 13.73 2.89047 14.2598C3.00563 14.4756 3.04536 14.6497 2.99678 14.7257C2.86789 14.9272 2.26125 15.0014 1.98718 14.9733C1.55787 14.9291 1.18867 15.3599 1.0593 15.7879C0.980636 16.0482 0.8094 16.9463 1.90858 17.5731C2.45335 17.8838 2.54879 18.274 2.64113 18.6515C2.71448 18.9512 2.8253 19.4043 3.29574 19.5014C3.88195 19.6224 4.13313 19 4.29936 18.5882C4.36447 18.4271 4.48225 18.1355 4.56591 18.0535C4.8113 18.0689 4.97783 17.9725 5.07523 17.887C5.34172 17.6532 5.36565 17.2805 5.38676 16.9516C5.41642 16.4899 5.45554 16.4091 5.53768 16.394C6.20065 16.2718 6.49723 16.3843 6.52842 16.4839C6.73132 17.1309 7.73988 18.2317 8.86403 17.9418C9.53652 17.7684 9.61732 17.3139 9.65619 17.0954C9.65637 17.0945 9.6565 17.0935 9.65668 17.0926C9.71423 17.0822 9.82419 17.0716 10.0187 17.0809C10.5985 17.1088 11.1004 17.1391 11.3715 17.2289C11.548 17.2873 11.5522 17.3301 11.5622 17.4335C11.6263 18.0947 12.225 18.155 12.5128 18.184C12.8932 18.2223 13.0513 18.2522 13.1453 18.6109C13.5844 20.2872 15.2042 20.4175 15.6902 20.4175C16.0855 20.4175 16.3804 20.2266 16.6174 20.0732C16.9459 19.8605 17.1629 19.7201 17.673 19.905C18.0842 20.054 18.4168 20.0556 18.6897 19.9098C19.0281 19.729 19.1469 19.3849 19.214 19.1487C19.2457 19.1602 19.2772 19.1719 19.3058 19.1825C19.7295 19.3399 20.3697 19.5777 21.254 19.3693C21.5423 19.3013 21.9345 19.3629 22.3139 19.4225C22.9215 19.5179 23.5496 19.6165 24.0092 19.2332C24.2838 19.0042 24.4372 18.643 24.4653 18.1599C24.4975 17.6053 24.5558 16.603 24.7026 16.3284C24.7228 16.3369 24.7497 16.3501 24.7842 16.3707C24.9826 16.4887 25.1271 16.6109 25.2669 16.7291C25.7485 17.1364 26.1426 17.3894 27.1931 17.2045C27.874 17.0845 28.1595 16.9483 28.3364 16.8226C28.3645 16.9005 28.3871 17.1378 28.2481 17.6041C28.1161 18.0468 28.2265 18.5377 28.5294 18.8549C28.7796 19.1167 29.1217 19.2149 29.4451 19.1175C29.7805 19.0165 30.2272 18.6681 30.4514 17.5823C30.8121 15.8358 30.4188 15.2086 30.0383 14.6021C29.9471 14.4565 29.8608 14.3191 29.7854 14.1634C29.4788 13.5306 28.9653 12.4718 28.0095 12.7181C27.905 12.7451 27.7923 12.7835 27.6729 12.8242C27.5445 12.868 27.3083 12.9486 27.1587 12.9715C27.1595 12.9639 27.1604 12.9557 27.1616 12.9471C27.1864 12.7549 27.2039 12.5759 27.2208 12.4028C27.2903 11.6926 27.3367 11.3419 27.631 11.1341C28.3594 10.6199 28.2296 9.57373 28.1347 8.80982C28.1182 8.67753 28.1028 8.5526 28.093 8.44285C28.084 8.34003 28.1122 8.26774 28.1875 8.20119C28.3188 8.0852 28.5214 8.04944 28.6137 8.05951C28.7051 8.18727 28.7763 8.67022 28.8241 8.99431L28.8499 9.16798C28.9653 9.93214 29.491 10.9301 31.3401 11.3448C31.6595 11.4166 31.9467 11.2981 32.1082 11.0281C32.5326 10.319 31.8476 8.67835 31.3333 8.02135Z" fill="#0065DD"/>
<path d="M3.51671 10.9782C3.55125 10.9782 3.58634 10.9741 3.62143 10.9657C3.86754 10.9062 4.02035 10.6522 3.96274 10.3982C3.91972 10.2086 3.83026 9.81414 3.95597 9.64451C4.04555 9.52361 4.28355 9.45026 4.62602 9.43785C5.98597 9.38861 6.40301 8.74018 6.80626 8.1131C7.02235 7.77711 7.24577 7.42972 7.65262 7.10437C8.05325 6.78406 8.22497 6.77808 8.2528 6.77971C8.27806 6.80742 8.45699 7.04405 8.3909 8.08482C8.35618 8.63074 8.45833 9.0319 8.70316 9.31104C9.0457 9.70162 9.54464 9.71919 9.94551 9.73335C10.1259 9.73971 10.2963 9.74576 10.4198 9.78127C10.8091 9.8931 11.1506 9.85778 11.425 9.82938C11.5941 9.81187 11.7689 9.7938 11.806 9.83567C11.9889 10.0414 12.1976 10.1413 12.4267 10.136C12.8586 10.1237 13.1512 9.75564 13.5942 9.19845C13.6347 9.14751 13.6768 9.09468 13.7205 9.04003C13.7444 9.01006 13.7618 8.99419 13.7715 8.98638C13.8348 9.00099 13.9751 9.08902 14.0701 9.14864C14.4085 9.36084 14.9199 9.6816 15.5568 9.40001C16.2578 9.09009 16.4391 8.86032 16.7824 8.37013C16.9067 8.19275 17.0613 7.97192 17.2968 7.6824C17.7113 7.17237 18.3112 7.02409 18.5588 7.14221C18.5979 7.16091 18.7172 7.21783 18.6608 7.55855C18.5802 8.04553 18.6712 8.41206 18.9311 8.64781C19.3816 9.05627 20.084 8.83375 20.5968 8.67123C20.7141 8.63408 20.8471 8.59196 20.9052 8.58295C20.9496 8.57886 21.0831 8.61242 21.1716 8.63496C21.6153 8.74805 22.5386 8.98298 22.9968 7.63209C23.306 6.72052 23.5324 6.68621 24.2044 6.58439C24.2758 6.57356 24.3497 6.56235 24.4263 6.5497C25.9168 6.30362 26.1952 5.29666 26.419 4.48747C26.4825 4.25771 26.5425 4.04072 26.626 3.84207C26.7622 3.5176 27.0139 3.35105 27.3325 3.14024C27.7417 2.86942 28.2511 2.53242 28.4657 1.77947C28.5686 1.41841 28.8634 1.21144 29.0218 1.15817C29.0172 1.25029 28.9876 1.41451 28.8897 1.66235C28.5454 2.53425 28.4746 3.01563 28.6371 3.37939C28.7859 3.71248 29.0838 3.81436 29.2618 3.87519C29.3305 3.89867 29.3953 3.92084 29.4267 3.94313C29.4267 3.94313 29.4295 3.94565 29.4346 3.9515C29.6026 4.14638 29.8919 4.16376 30.0808 3.99035C30.2696 3.817 30.2865 3.51848 30.1184 3.32366C30.0664 3.26328 30.01 3.21127 29.9507 3.16883C29.8082 3.06701 29.6648 3.01802 29.5497 2.97867C29.5248 2.97017 29.4947 2.95984 29.4697 2.95039C29.4711 2.85727 29.5054 2.60628 29.7373 2.01874C30.0048 1.34147 30.004 0.828983 29.7352 0.495575C29.5362 0.248808 29.2222 0.150077 28.8737 0.224377C28.3874 0.328083 27.7895 0.804112 27.5875 1.51299C27.4692 1.92769 27.2047 2.10286 26.8383 2.34522C26.4609 2.59495 26.0332 2.87798 25.786 3.46659C25.6787 3.72211 25.6075 3.97952 25.5387 4.22843C25.3326 4.97377 25.1965 5.46616 24.2817 5.61716C24.2091 5.62919 24.139 5.63976 24.0714 5.64997C23.3276 5.76268 22.625 5.86909 22.1327 7.32016C21.9496 7.86041 21.82 7.82742 21.3909 7.71804C21.1925 7.66754 20.9874 7.61534 20.7705 7.64878C20.6437 7.66842 20.4973 7.7147 20.3281 7.76835C20.1557 7.82294 19.7169 7.96172 19.5502 7.93477C19.546 7.89976 19.5441 7.83207 19.563 7.71748C19.6722 7.05796 19.4404 6.52249 18.9432 6.28498C18.2545 5.95598 17.223 6.30318 16.5954 7.0754C16.3389 7.39106 16.1735 7.62712 16.0406 7.81684C15.7605 8.21674 15.6939 8.31175 15.1963 8.53182C15.0111 8.61374 14.8633 8.54076 14.5457 8.34154C14.2316 8.14452 13.5782 7.7346 13.0148 8.43838C12.9704 8.49385 12.9277 8.54757 12.8865 8.59932C12.7311 8.7949 12.5455 9.02838 12.427 9.1409C12.0888 8.81133 11.672 8.85453 11.3337 8.88947C11.1049 8.91315 10.889 8.9355 10.6654 8.87128C10.4367 8.80554 10.2029 8.79729 9.97682 8.78929C9.73662 8.78086 9.46439 8.77122 9.38188 8.67715C9.3507 8.64157 9.28064 8.51866 9.30432 8.14653C9.35338 7.3745 9.34222 6.3062 8.6815 5.94389C8.04574 5.59537 7.32778 6.16913 7.09192 6.35771C6.56619 6.77814 6.27644 7.22873 6.04357 7.59079C5.68243 8.15232 5.48355 8.46162 4.59392 8.49379C3.95469 8.51696 3.49548 8.71103 3.22886 9.07063C2.84037 9.59476 2.99647 10.2827 3.07147 10.6134C3.12084 10.8312 3.30892 10.9782 3.51671 10.9782ZM31.3333 8.02135C31.2045 7.85676 31.0782 7.70835 30.956 7.56478C30.4016 6.91314 30.236 6.66832 30.3965 6.26162C30.4331 6.16931 30.4653 6.07033 30.4923 5.96757C30.5585 5.71589 30.4145 5.45641 30.1706 5.38802C29.9269 5.31983 29.6752 5.46824 29.609 5.71998C29.5916 5.78578 29.5714 5.84799 29.5489 5.90504C29.1612 6.88676 29.7239 7.54822 30.2681 8.18784C30.3841 8.32422 30.5042 8.46527 30.6211 8.61475C31.0238 9.12906 31.2916 9.97011 31.327 10.3709C30.3801 10.1169 29.8516 9.66396 29.7547 9.02265L29.7294 8.85232C29.6178 8.09559 29.5024 7.3131 28.8595 7.14731C28.4556 7.04323 27.9346 7.18157 27.5923 7.48393C27.2916 7.74971 27.1458 8.12071 27.1817 8.52842C27.1929 8.65549 27.2094 8.78879 27.2269 8.9299C27.2881 9.42242 27.3806 10.1667 27.1143 10.3546C26.4558 10.8195 26.3852 11.5426 26.3103 12.3081C26.2941 12.4737 26.2774 12.645 26.2544 12.8222C26.1892 13.3276 26.365 13.5957 26.524 13.7317C26.9247 14.0743 27.4991 13.8784 27.9606 13.7208C28.0633 13.6858 28.1602 13.6527 28.2316 13.6343C28.3974 13.5915 28.6314 13.8936 28.9669 14.5857C29.0649 14.7882 29.1739 14.9619 29.27 15.1151C29.5875 15.6212 29.8382 16.0208 29.5564 17.3854C29.4335 17.9804 29.255 18.175 29.1977 18.2068C29.1542 18.1775 29.0749 18.0431 29.123 17.8818C29.3263 17.2004 29.3214 16.6718 29.1085 16.3106C28.9697 16.0754 28.7541 15.9244 28.4847 15.8739C28.2128 15.823 28.0415 15.8618 27.8528 16.0172C27.8051 16.0564 27.6783 16.1608 27.039 16.2734C26.3215 16.3998 26.1827 16.2823 25.8471 15.9985C25.6947 15.8696 25.5049 15.7091 25.2417 15.5525C24.7958 15.2872 24.4724 15.3591 24.2794 15.4662C23.7145 15.78 23.6348 16.6727 23.5516 18.1033C23.5399 18.3047 23.4981 18.4451 23.4337 18.4988C23.2881 18.6203 22.8243 18.5474 22.4516 18.4889C22.0092 18.4193 21.5079 18.3406 21.05 18.4486C20.4273 18.5955 19.9775 18.4283 19.616 18.2939C19.4012 18.2141 19.2157 18.1452 19.0175 18.1452C18.5393 18.1452 18.4071 18.6244 18.3507 18.829C18.331 18.9003 18.2953 19.0298 18.2654 19.0711C18.2428 19.0746 18.159 19.0802 17.9765 19.014C17.0503 18.6782 16.4971 19.0363 16.131 19.2732C15.9338 19.4009 15.816 19.4731 15.6902 19.4731C15.2781 19.4731 14.291 19.3651 14.0289 18.3646C13.7662 17.3615 13.0087 17.2851 12.6018 17.2441C12.5572 17.2396 12.5034 17.2342 12.4585 17.2278C12.295 16.2449 11.3041 16.1972 10.0613 16.1376C9.24055 16.0982 8.86244 16.3263 8.75589 16.925C8.75217 16.9457 8.74759 16.9717 8.74344 16.9898C8.72757 16.9981 8.69639 17.0116 8.64202 17.0256C8.06466 17.1744 7.47095 16.4215 7.3993 16.1931C7.27738 15.8042 6.85246 15.1923 5.37675 15.4642C4.55517 15.6156 4.50196 16.4441 4.4734 16.8892C4.46919 16.9547 4.46376 17.0394 4.45601 17.1096C3.89983 17.1595 3.64273 17.7597 3.46887 18.1891C3.34609 17.7554 3.09997 17.1734 2.35132 16.7465C2.15811 16.6363 1.92542 16.4546 1.91426 16.2148C1.90828 16.0849 1.9657 15.9735 2.00982 15.9188C2.34717 15.9276 3.34493 15.8959 3.76063 15.2461C3.93504 14.9735 4.06478 14.5021 3.69222 13.8041C3.50609 13.4555 3.44336 13.0967 3.50042 12.7071C3.53819 12.4492 3.36616 12.2085 3.11627 12.1695C2.86649 12.1308 2.63313 12.3081 2.59536 12.5659C2.50834 13.1601 2.60762 13.73 2.89047 14.2598C3.00563 14.4756 3.04536 14.6497 2.99678 14.7257C2.86789 14.9272 2.26125 15.0014 1.98718 14.9733C1.55787 14.9291 1.18867 15.3599 1.0593 15.7879C0.980636 16.0482 0.8094 16.9463 1.90858 17.5731C2.45335 17.8838 2.54879 18.274 2.64113 18.6515C2.71448 18.9512 2.8253 19.4043 3.29574 19.5014C3.88195 19.6224 4.13313 19 4.29936 18.5882C4.36447 18.4271 4.48225 18.1355 4.56591 18.0535C4.8113 18.0689 4.97783 17.9725 5.07523 17.887C5.34172 17.6532 5.36565 17.2805 5.38676 16.9516C5.41642 16.4899 5.45554 16.4091 5.53768 16.394C6.20065 16.2718 6.49723 16.3843 6.52842 16.4839C6.73132 17.1309 7.73988 18.2317 8.86403 17.9418C9.53652 17.7684 9.61732 17.3139 9.65619 17.0954C9.65637 17.0945 9.6565 17.0935 9.65668 17.0926C9.71423 17.0822 9.82419 17.0716 10.0187 17.0809C10.5985 17.1088 11.1004 17.1391 11.3715 17.2289C11.548 17.2873 11.5522 17.3301 11.5622 17.4335C11.6263 18.0947 12.225 18.155 12.5128 18.184C12.8932 18.2223 13.0513 18.2522 13.1453 18.6109C13.5844 20.2872 15.2042 20.4175 15.6902 20.4175C16.0855 20.4175 16.3804 20.2266 16.6174 20.0732C16.9459 19.8605 17.1629 19.7201 17.673 19.905C18.0842 20.054 18.4168 20.0556 18.6897 19.9098C19.0281 19.729 19.1469 19.3849 19.214 19.1487C19.2457 19.1602 19.2772 19.1719 19.3058 19.1825C19.7295 19.3399 20.3697 19.5777 21.254 19.3693C21.5423 19.3013 21.9345 19.3629 22.3139 19.4225C22.9215 19.5179 23.5496 19.6165 24.0092 19.2332C24.2838 19.0042 24.4372 18.643 24.4653 18.1599C24.4975 17.6053 24.5558 16.603 24.7026 16.3284C24.7228 16.3369 24.7497 16.3501 24.7842 16.3707C24.9826 16.4887 25.1271 16.6109 25.2669 16.7291C25.7485 17.1364 26.1426 17.3894 27.1931 17.2045C27.874 17.0845 28.1595 16.9483 28.3364 16.8226C28.3645 16.9005 28.3871 17.1378 28.2481 17.6041C28.1161 18.0468 28.2265 18.5377 28.5294 18.8549C28.7796 19.1167 29.1217 19.2149 29.4451 19.1175C29.7805 19.0165 30.2272 18.6681 30.4514 17.5823C30.8121 15.8358 30.4188 15.2086 30.0383 14.6021C29.9471 14.4565 29.8608 14.3191 29.7854 14.1634C29.4788 13.5306 28.9653 12.4718 28.0095 12.7181C27.905 12.7451 27.7923 12.7835 27.6729 12.8242C27.5445 12.868 27.3083 12.9486 27.1587 12.9715C27.1595 12.9639 27.1604 12.9557 27.1616 12.9471C27.1864 12.7549 27.2039 12.5759 27.2208 12.4028C27.2903 11.6926 27.3367 11.3419 27.631 11.1341C28.3594 10.6199 28.2296 9.57373 28.1347 8.80982C28.1182 8.67753 28.1028 8.5526 28.093 8.44285C28.084 8.34003 28.1122 8.26774 28.1875 8.20119C28.3188 8.0852 28.5214 8.04944 28.6137 8.05951C28.7051 8.18727 28.7763 8.67022 28.8241 8.99431L28.8499 9.16798C28.9653 9.93214 29.491 10.9301 31.3401 11.3448C31.6595 11.4166 31.9467 11.2981 32.1082 11.0281C32.5326 10.319 31.8476 8.67835 31.3333 8.02135Z" stroke="#0065DD" stroke-width="0.4" mask="url(#path-1-outside-1)"/>
</svg>
