<svg width="257" height="111" viewBox="0 0 257 111" fill="none" xmlns="http://www.w3.org/2000/svg">
<path d="M0 47.6313V13.4134L4.10614 10.4023V44.8939L0 47.6313Z" fill="#CCCCCC"/>
<path d="M7.93854 42.7039V8.48602L12.0447 5.47485V39.9665L7.93854 42.7039Z" fill="#CCCCCC"/>
<path d="M15.6033 37.229V3.01117L19.7094 0V34.4916L15.6033 37.229Z" fill="#CCCCCC"/>
<path d="M29.2904 110.045V75.8268L33.3965 72.8156V107.307L29.2904 110.045Z" fill="#CCCCCC"/>
<path d="M37.229 105.117V70.8994L41.3351 67.8882V102.38L37.229 105.117Z" fill="#CCCCCC"/>
<path d="M44.8938 99.6424V65.4245L48.9999 62.4134V96.905L44.8938 99.6424Z" fill="#CCCCCC"/>
<path d="M29.2905 4.37989L23.8157 0V37.5028L0.273804 53.1061V93.0726L5.20117 95.81V56.9385L29.2905 41.3352V4.37989Z" fill="black"/>
<path d="M49 18.6145L43.5252 14.2346V51.7374L19.9833 67.3407V107.307L24.9106 110.045V71.1731L49 55.5698V18.6145Z" fill="black"/>
<path d="M39.1453 12.0446L33.6704 7.66476V45.1675L10.1285 60.7709V100.737L15.0559 103.475V64.6033L39.1453 48.9999V12.0446Z" fill="black"/>
<path d="M89.1406 48.625H91.1172V58.4219H96.125V48.625H98.1016V58.4062H99.4766L99.3203 62.7422H97.5078V60H89.1406V48.625ZM104.648 60.1562C103.445 60.1562 102.469 59.7786 101.719 59.0234C100.974 58.263 100.602 57.2526 100.602 55.9922V55.7578C100.602 54.9141 100.763 54.1615 101.086 53.5C101.414 52.8333 101.872 52.3151 102.461 51.9453C103.049 51.5755 103.706 51.3906 104.43 51.3906C105.581 51.3906 106.469 51.7578 107.094 52.4922C107.724 53.2266 108.039 54.2656 108.039 55.6094V56.375H102.516C102.573 57.0729 102.805 57.625 103.211 58.0312C103.622 58.4375 104.138 58.6406 104.758 58.6406C105.628 58.6406 106.336 58.2891 106.883 57.5859L107.906 58.5625C107.568 59.0677 107.115 59.4609 106.547 59.7422C105.984 60.0182 105.352 60.1562 104.648 60.1562ZM104.422 52.9141C103.901 52.9141 103.479 53.0964 103.156 53.4609C102.839 53.8255 102.635 54.3333 102.547 54.9844H106.164V54.8438C106.122 54.2083 105.953 53.7292 105.656 53.4062C105.359 53.0781 104.948 52.9141 104.422 52.9141ZM116.68 60H114.781V56.5859H111.492V60H109.594V51.5469H111.492V55.0703H114.781V51.5469H116.68V60ZM125.359 53.0547H122.617V60H120.719V53.0547H118.008V51.5469H125.359V53.0547ZM134.031 55.8594C134.031 57.1667 133.734 58.2109 133.141 58.9922C132.547 59.7682 131.75 60.1562 130.75 60.1562C129.823 60.1562 129.081 59.8516 128.523 59.2422V63.25H126.625V51.5469H128.375L128.453 52.4062C129.01 51.7292 129.768 51.3906 130.727 51.3906C131.758 51.3906 132.565 51.776 133.148 52.5469C133.737 53.3125 134.031 54.3776 134.031 55.7422V55.8594ZM132.141 55.6953C132.141 54.8516 131.971 54.1823 131.633 53.6875C131.299 53.1927 130.82 52.9453 130.195 52.9453C129.419 52.9453 128.862 53.2656 128.523 53.9062V57.6562C128.867 58.3125 129.43 58.6406 130.211 58.6406C130.815 58.6406 131.286 58.3984 131.625 57.9141C131.969 57.4245 132.141 56.6849 132.141 55.6953ZM139.273 55.6953C139.273 54.8672 139.438 54.1224 139.766 53.4609C140.094 52.7943 140.555 52.2839 141.148 51.9297C141.742 51.5703 142.424 51.3906 143.195 51.3906C144.336 51.3906 145.26 51.7578 145.969 52.4922C146.682 53.2266 147.068 54.2005 147.125 55.4141L147.133 55.8594C147.133 56.6927 146.971 57.4375 146.648 58.0938C146.331 58.75 145.872 59.2578 145.273 59.6172C144.68 59.9766 143.992 60.1562 143.211 60.1562C142.018 60.1562 141.062 59.7604 140.344 58.9688C139.63 58.1719 139.273 57.112 139.273 55.7891V55.6953ZM141.172 55.8594C141.172 56.7292 141.352 57.4115 141.711 57.9062C142.07 58.3958 142.57 58.6406 143.211 58.6406C143.852 58.6406 144.349 58.3906 144.703 57.8906C145.062 57.3906 145.242 56.6589 145.242 55.6953C145.242 54.8411 145.057 54.1641 144.688 53.6641C144.323 53.1641 143.826 52.9141 143.195 52.9141C142.576 52.9141 142.083 53.1615 141.719 53.6562C141.354 54.1458 141.172 54.8802 141.172 55.8594ZM152.719 52.0156C153.781 52.0156 154.633 52.3724 155.273 53.0859C155.914 53.7943 156.234 54.7578 156.234 55.9766V56.0703C156.234 57.2891 155.885 58.276 155.188 59.0312C154.495 59.7865 153.552 60.1641 152.359 60.1641C151.198 60.1641 150.26 59.7786 149.547 59.0078C148.833 58.237 148.477 57.1849 148.477 55.8516V55.3047C148.477 53.4818 148.799 52.0391 149.445 50.9766C150.091 49.9141 151.055 49.25 152.336 48.9844C153.055 48.8385 153.518 48.6849 153.727 48.5234C153.94 48.3568 154.047 48.1328 154.047 47.8516H155.578C155.578 48.3776 155.492 48.8047 155.32 49.1328C155.148 49.4609 154.885 49.7292 154.531 49.9375C154.177 50.1406 153.568 50.3333 152.703 50.5156C151.911 50.6823 151.307 50.9792 150.891 51.4062C150.479 51.8333 150.203 52.4245 150.062 53.1797C150.818 52.4036 151.703 52.0156 152.719 52.0156ZM152.344 53.5391C151.729 53.5391 151.247 53.7474 150.898 54.1641C150.549 54.5755 150.375 55.2109 150.375 56.0703C150.375 56.8828 150.547 57.5156 150.891 57.9688C151.234 58.4219 151.724 58.6484 152.359 58.6484C152.99 58.6484 153.477 58.4219 153.82 57.9688C154.169 57.5104 154.344 56.8229 154.344 55.9062C154.344 55.1771 154.169 54.6016 153.82 54.1797C153.477 53.7526 152.984 53.5391 152.344 53.5391ZM161.445 60.1562C160.242 60.1562 159.266 59.7786 158.516 59.0234C157.771 58.263 157.398 57.2526 157.398 55.9922V55.7578C157.398 54.9141 157.56 54.1615 157.883 53.5C158.211 52.8333 158.669 52.3151 159.258 51.9453C159.846 51.5755 160.503 51.3906 161.227 51.3906C162.378 51.3906 163.266 51.7578 163.891 52.4922C164.521 53.2266 164.836 54.2656 164.836 55.6094V56.375H159.312C159.37 57.0729 159.602 57.625 160.008 58.0312C160.419 58.4375 160.935 58.6406 161.555 58.6406C162.424 58.6406 163.133 58.2891 163.68 57.5859L164.703 58.5625C164.365 59.0677 163.911 59.4609 163.344 59.7422C162.781 60.0182 162.148 60.1562 161.445 60.1562ZM161.219 52.9141C160.698 52.9141 160.276 53.0964 159.953 53.4609C159.635 53.8255 159.432 54.3333 159.344 54.9844H162.961V54.8438C162.919 54.2083 162.75 53.7292 162.453 53.4062C162.156 53.0781 161.745 52.9141 161.219 52.9141ZM169.789 58.6406C170.263 58.6406 170.656 58.5026 170.969 58.2266C171.281 57.9505 171.448 57.6094 171.469 57.2031H173.258C173.237 57.7292 173.073 58.2214 172.766 58.6797C172.458 59.1328 172.042 59.4922 171.516 59.7578C170.99 60.0234 170.422 60.1562 169.812 60.1562C168.63 60.1562 167.693 59.7734 167 59.0078C166.307 58.2422 165.961 57.1849 165.961 55.8359V55.6406C165.961 54.3542 166.305 53.3255 166.992 52.5547C167.68 51.7786 168.617 51.3906 169.805 51.3906C170.81 51.3906 171.628 51.6849 172.258 52.2734C172.893 52.8568 173.227 53.625 173.258 54.5781H171.469C171.448 54.0938 171.281 53.6953 170.969 53.3828C170.661 53.0703 170.268 52.9141 169.789 52.9141C169.174 52.9141 168.701 53.138 168.367 53.5859C168.034 54.0286 167.865 54.7031 167.859 55.6094V55.9141C167.859 56.8307 168.023 57.5156 168.352 57.9688C168.685 58.4167 169.164 58.6406 169.789 58.6406ZM181.859 60H179.961V53.0781H176.664V60H174.766V51.5469H181.859V60ZM187.602 60.1562C186.398 60.1562 185.422 59.7786 184.672 59.0234C183.927 58.263 183.555 57.2526 183.555 55.9922V55.7578C183.555 54.9141 183.716 54.1615 184.039 53.5C184.367 52.8333 184.826 52.3151 185.414 51.9453C186.003 51.5755 186.659 51.3906 187.383 51.3906C188.534 51.3906 189.422 51.7578 190.047 52.4922C190.677 53.2266 190.992 54.2656 190.992 55.6094V56.375H185.469C185.526 57.0729 185.758 57.625 186.164 58.0312C186.576 58.4375 187.091 58.6406 187.711 58.6406C188.581 58.6406 189.289 58.2891 189.836 57.5859L190.859 58.5625C190.521 59.0677 190.068 59.4609 189.5 59.7422C188.938 60.0182 188.305 60.1562 187.602 60.1562ZM187.375 52.9141C186.854 52.9141 186.432 53.0964 186.109 53.4609C185.792 53.8255 185.589 54.3333 185.5 54.9844H189.117V54.8438C189.076 54.2083 188.906 53.7292 188.609 53.4062C188.312 53.0781 187.901 52.9141 187.375 52.9141ZM199.25 60H197.352V57.1797C196.862 57.2943 196.346 57.3516 195.805 57.3516C194.648 57.3516 193.766 57.0755 193.156 56.5234C192.547 55.9661 192.242 55.1693 192.242 54.1328V51.5391H194.141V54.1328C194.141 54.7474 194.276 55.1823 194.547 55.4375C194.823 55.6927 195.242 55.8203 195.805 55.8203C196.315 55.8203 196.831 55.7604 197.352 55.6406V51.5469H199.25V60ZM204.992 60.1562C203.789 60.1562 202.812 59.7786 202.062 59.0234C201.318 58.263 200.945 57.2526 200.945 55.9922V55.7578C200.945 54.9141 201.107 54.1615 201.43 53.5C201.758 52.8333 202.216 52.3151 202.805 51.9453C203.393 51.5755 204.049 51.3906 204.773 51.3906C205.924 51.3906 206.812 51.7578 207.438 52.4922C208.068 53.2266 208.383 54.2656 208.383 55.6094V56.375H202.859C202.917 57.0729 203.148 57.625 203.555 58.0312C203.966 58.4375 204.482 58.6406 205.102 58.6406C205.971 58.6406 206.68 58.2891 207.227 57.5859L208.25 58.5625C207.911 59.0677 207.458 59.4609 206.891 59.7422C206.328 60.0182 205.695 60.1562 204.992 60.1562ZM204.766 52.9141C204.245 52.9141 203.823 53.0964 203.5 53.4609C203.182 53.8255 202.979 54.3333 202.891 54.9844H206.508V54.8438C206.466 54.2083 206.297 53.7292 206 53.4062C205.703 53.0781 205.292 52.9141 204.766 52.9141ZM217.023 60H215.125V56.5859H211.836V60H209.938V51.5469H211.836V55.0703H215.125V51.5469H217.023V60ZM224.328 51.5469H226.219V60H224.328V54.3594L221.016 60H219.125V51.5469H221.016V57.1875L224.328 51.5469ZM235.008 51.5469V60H233.117V56.8984H231.344L229.539 60H227.57L229.562 56.5859C229.042 56.3672 228.641 56.0547 228.359 55.6484C228.083 55.2422 227.945 54.776 227.945 54.25C227.945 53.4635 228.247 52.8203 228.852 52.3203C229.461 51.8151 230.281 51.5573 231.312 51.5469H235.008ZM229.844 54.2969C229.844 54.651 229.974 54.9401 230.234 55.1641C230.5 55.3828 230.839 55.4922 231.25 55.4922H233.117V53.0547H231.367C230.904 53.0547 230.534 53.1719 230.258 53.4062C229.982 53.6406 229.844 53.9375 229.844 54.2969ZM94.6016 72.0781H90.9297V79H89.0391V70.5469H94.6016V72.0781ZM95.1641 74.6953C95.1641 73.8672 95.3281 73.1224 95.6562 72.4609C95.9844 71.7943 96.4453 71.2839 97.0391 70.9297C97.6328 70.5703 98.3151 70.3906 99.0859 70.3906C100.227 70.3906 101.151 70.7578 101.859 71.4922C102.573 72.2266 102.958 73.2005 103.016 74.4141L103.023 74.8594C103.023 75.6927 102.862 76.4375 102.539 77.0938C102.221 77.75 101.763 78.2578 101.164 78.6172C100.57 78.9766 99.8828 79.1562 99.1016 79.1562C97.9089 79.1562 96.9531 78.7604 96.2344 77.9688C95.5208 77.1719 95.1641 76.112 95.1641 74.7891V74.6953ZM97.0625 74.8594C97.0625 75.7292 97.2422 76.4115 97.6016 76.9062C97.9609 77.3958 98.4609 77.6406 99.1016 77.6406C99.7422 77.6406 100.24 77.3906 100.594 76.8906C100.953 76.3906 101.133 75.6589 101.133 74.6953C101.133 73.8411 100.948 73.1641 100.578 72.6641C100.214 72.1641 99.7161 71.9141 99.0859 71.9141C98.4661 71.9141 97.974 72.1615 97.6094 72.6562C97.2448 73.1458 97.0625 73.8802 97.0625 74.8594ZM108.102 77.6406C108.576 77.6406 108.969 77.5026 109.281 77.2266C109.594 76.9505 109.76 76.6094 109.781 76.2031H111.57C111.549 76.7292 111.385 77.2214 111.078 77.6797C110.771 78.1328 110.354 78.4922 109.828 78.7578C109.302 79.0234 108.734 79.1562 108.125 79.1562C106.943 79.1562 106.005 78.7734 105.312 78.0078C104.62 77.2422 104.273 76.1849 104.273 74.8359V74.6406C104.273 73.3542 104.617 72.3255 105.305 71.5547C105.992 70.7786 106.93 70.3906 108.117 70.3906C109.122 70.3906 109.94 70.6849 110.57 71.2734C111.206 71.8568 111.539 72.625 111.57 73.5781H109.781C109.76 73.0938 109.594 72.6953 109.281 72.3828C108.974 72.0703 108.581 71.9141 108.102 71.9141C107.487 71.9141 107.013 72.138 106.68 72.5859C106.346 73.0286 106.177 73.7031 106.172 74.6094V74.9141C106.172 75.8307 106.336 76.5156 106.664 76.9688C106.997 77.4167 107.477 77.6406 108.102 77.6406ZM115.961 76.2812L117.68 70.5469H119.703L116.344 80.2812C115.828 81.7031 114.953 82.4141 113.719 82.4141C113.443 82.4141 113.138 82.3672 112.805 82.2734V80.8047L113.164 80.8281C113.643 80.8281 114.003 80.7396 114.242 80.5625C114.487 80.3906 114.68 80.099 114.82 79.6875L115.094 78.9609L112.125 70.5469H114.172L115.961 76.2812ZM120.398 77.4844C120.924 76.8958 121.276 76.3385 121.453 75.8125C121.635 75.2812 121.745 74.6042 121.781 73.7812L121.891 70.5469H127.758V77.4844H128.93V81.5156H127.039V79H121.617V81.5156H119.695L119.703 77.4844H120.398ZM122.625 77.4844H125.867V72.1797H123.734L123.68 73.7969C123.607 75.349 123.255 76.5781 122.625 77.4844ZM135.336 79C135.253 78.8385 135.18 78.5755 135.117 78.2109C134.513 78.8411 133.773 79.1562 132.898 79.1562C132.049 79.1562 131.357 78.9141 130.82 78.4297C130.284 77.9453 130.016 77.3464 130.016 76.6328C130.016 75.7318 130.349 75.0417 131.016 74.5625C131.688 74.0781 132.646 73.8359 133.891 73.8359H135.055V73.2812C135.055 72.8438 134.932 72.4948 134.688 72.2344C134.443 71.9688 134.07 71.8359 133.57 71.8359C133.138 71.8359 132.784 71.9453 132.508 72.1641C132.232 72.3776 132.094 72.651 132.094 72.9844H130.195C130.195 72.5208 130.349 72.0885 130.656 71.6875C130.964 71.2812 131.38 70.9635 131.906 70.7344C132.438 70.5052 133.029 70.3906 133.68 70.3906C134.669 70.3906 135.458 70.6406 136.047 71.1406C136.635 71.6354 136.938 72.3333 136.953 73.2344V77.0469C136.953 77.8073 137.06 78.4141 137.273 78.8672V79H135.336ZM133.25 77.6328C133.625 77.6328 133.977 77.5417 134.305 77.3594C134.638 77.1771 134.888 76.9323 135.055 76.625V75.0312H134.031C133.328 75.0312 132.799 75.1536 132.445 75.3984C132.091 75.6432 131.914 75.9896 131.914 76.4375C131.914 76.8021 132.034 77.0938 132.273 77.3125C132.518 77.526 132.844 77.6328 133.25 77.6328ZM146.344 74.8594C146.344 76.1667 146.047 77.2109 145.453 77.9922C144.859 78.7682 144.062 79.1562 143.062 79.1562C142.135 79.1562 141.393 78.8516 140.836 78.2422V82.25H138.938V70.5469H140.688L140.766 71.4062C141.323 70.7292 142.081 70.3906 143.039 70.3906C144.07 70.3906 144.878 70.776 145.461 71.5469C146.049 72.3125 146.344 73.3776 146.344 74.7422V74.8594ZM144.453 74.6953C144.453 73.8516 144.284 73.1823 143.945 72.6875C143.612 72.1927 143.133 71.9453 142.508 71.9453C141.732 71.9453 141.174 72.2656 140.836 72.9062V76.6562C141.18 77.3125 141.742 77.6406 142.523 77.6406C143.128 77.6406 143.599 77.3984 143.938 76.9141C144.281 76.4245 144.453 75.6849 144.453 74.6953ZM151.43 77.6406C151.904 77.6406 152.297 77.5026 152.609 77.2266C152.922 76.9505 153.089 76.6094 153.109 76.2031H154.898C154.878 76.7292 154.714 77.2214 154.406 77.6797C154.099 78.1328 153.682 78.4922 153.156 78.7578C152.63 79.0234 152.062 79.1562 151.453 79.1562C150.271 79.1562 149.333 78.7734 148.641 78.0078C147.948 77.2422 147.602 76.1849 147.602 74.8359V74.6406C147.602 73.3542 147.945 72.3255 148.633 71.5547C149.32 70.7786 150.258 70.3906 151.445 70.3906C152.451 70.3906 153.268 70.6849 153.898 71.2734C154.534 71.8568 154.867 72.625 154.898 73.5781H153.109C153.089 73.0938 152.922 72.6953 152.609 72.3828C152.302 72.0703 151.909 71.9141 151.43 71.9141C150.815 71.9141 150.341 72.138 150.008 72.5859C149.674 73.0286 149.505 73.7031 149.5 74.6094V74.9141C149.5 75.8307 149.664 76.5156 149.992 76.9688C150.326 77.4167 150.805 77.6406 151.43 77.6406ZM162.984 72.0547H160.242V79H158.344V72.0547H155.633V70.5469H162.984V72.0547ZM164.398 79V70.5469H167.828C168.984 70.5469 169.865 70.75 170.469 71.1562C171.073 71.5573 171.375 72.1354 171.375 72.8906C171.375 73.2812 171.253 73.6328 171.008 73.9453C170.768 74.2526 170.411 74.4896 169.938 74.6562C170.49 74.7708 170.927 75.0026 171.25 75.3516C171.573 75.7005 171.734 76.112 171.734 76.5859C171.734 77.3724 171.443 77.9714 170.859 78.3828C170.281 78.7943 169.448 79 168.359 79H164.398ZM166.297 75.3984V77.5H168.375C169.349 77.5 169.836 77.151 169.836 76.4531C169.836 75.75 169.341 75.3984 168.352 75.3984H166.297ZM166.297 74.0391H167.859C168.938 74.0391 169.477 73.7214 169.477 73.0859C169.477 72.4193 168.966 72.0755 167.945 72.0547H166.297V74.0391ZM177.102 79.1562C175.898 79.1562 174.922 78.7786 174.172 78.0234C173.427 77.263 173.055 76.2526 173.055 74.9922V74.7578C173.055 73.9141 173.216 73.1615 173.539 72.5C173.867 71.8333 174.326 71.3151 174.914 70.9453C175.503 70.5755 176.159 70.3906 176.883 70.3906C178.034 70.3906 178.922 70.7578 179.547 71.4922C180.177 72.2266 180.492 73.2656 180.492 74.6094V75.375H174.969C175.026 76.0729 175.258 76.625 175.664 77.0312C176.076 77.4375 176.591 77.6406 177.211 77.6406C178.081 77.6406 178.789 77.2891 179.336 76.5859L180.359 77.5625C180.021 78.0677 179.568 78.4609 179 78.7422C178.438 79.0182 177.805 79.1562 177.102 79.1562ZM176.875 71.9141C176.354 71.9141 175.932 72.0964 175.609 72.4609C175.292 72.8255 175.089 73.3333 175 73.9844H178.617V73.8438C178.576 73.2083 178.406 72.7292 178.109 72.4062C177.812 72.0781 177.401 71.9141 176.875 71.9141ZM189.133 79H187.234V75.5859H183.945V79H182.047V70.5469H183.945V74.0703H187.234V70.5469H189.133V79ZM198.32 79H196.422V75.5859H193.133V79H191.234V70.5469H193.133V74.0703H196.422V70.5469H198.32V79ZM202.391 73.2344H204.25C204.943 73.2344 205.547 73.3542 206.062 73.5938C206.578 73.8333 206.969 74.1693 207.234 74.6016C207.505 75.0339 207.641 75.5365 207.641 76.1094C207.641 76.9792 207.333 77.6771 206.719 78.2031C206.104 78.7292 205.286 78.9948 204.266 79H200.492V70.5469H202.391V73.2344ZM210.945 79H209.047V70.5469H210.945V79ZM202.391 74.7578V77.4844H204.242C204.706 77.4844 205.07 77.3698 205.336 77.1406C205.607 76.9062 205.742 76.5755 205.742 76.1484C205.742 75.7214 205.609 75.3854 205.344 75.1406C205.083 74.8906 204.729 74.763 204.281 74.7578H202.391ZM216.258 73.3281L217.867 70.5469H219.977L217.391 74.7109L220.062 79H217.969L216.281 76.1094L214.602 79H212.492L215.164 74.7109L212.586 70.5469H214.68L216.258 73.3281ZM230.531 70.5469H232.422V79H230.531V73.3594L227.219 79H225.328V70.5469H227.219V76.1875L230.531 70.5469ZM93.9922 95.6641L96.4922 89.5469H98.8672V98H96.9688V92.4062L94.6406 98H93.3516L91.0156 92.375V98H89.1172V89.5469H91.5078L93.9922 95.6641ZM103.961 95.2812L105.68 89.5469H107.703L104.344 99.2812C103.828 100.703 102.953 101.414 101.719 101.414C101.443 101.414 101.138 101.367 100.805 101.273V99.8047L101.164 99.8281C101.643 99.8281 102.003 99.7396 102.242 99.5625C102.487 99.3906 102.68 99.099 102.82 98.6875L103.094 97.9609L100.125 89.5469H102.172L103.961 95.2812ZM115.961 98H114.062V94.5859H110.773V98H108.875V89.5469H110.773V93.0703H114.062V89.5469H115.961V98ZM123.266 89.5469H125.156V98H123.266V92.3594L119.953 98H118.062V89.5469H119.953V95.1875L123.266 89.5469ZM127.25 89.5469H129.148V96.4844H132.445V89.5469H134.344V96.4844H135.492L135.336 100.508H133.609V98H127.25V89.5469ZM142.109 89.5469H144V98H142.109V92.3594L138.797 98H136.906V89.5469H138.797V95.1875L142.109 89.5469ZM153.188 98H151.289V91.0781H147.992V98H146.094V89.5469H153.188V98ZM160.258 98C160.174 97.8385 160.102 97.5755 160.039 97.2109C159.435 97.8411 158.695 98.1562 157.82 98.1562C156.971 98.1562 156.279 97.9141 155.742 97.4297C155.206 96.9453 154.938 96.3464 154.938 95.6328C154.938 94.7318 155.271 94.0417 155.938 93.5625C156.609 93.0781 157.568 92.8359 158.812 92.8359H159.977V92.2812C159.977 91.8438 159.854 91.4948 159.609 91.2344C159.365 90.9688 158.992 90.8359 158.492 90.8359C158.06 90.8359 157.706 90.9453 157.43 91.1641C157.154 91.3776 157.016 91.651 157.016 91.9844H155.117C155.117 91.5208 155.271 91.0885 155.578 90.6875C155.885 90.2812 156.302 89.9635 156.828 89.7344C157.359 89.5052 157.951 89.3906 158.602 89.3906C159.591 89.3906 160.38 89.6406 160.969 90.1406C161.557 90.6354 161.859 91.3333 161.875 92.2344V96.0469C161.875 96.8073 161.982 97.4141 162.195 97.8672V98H160.258ZM158.172 96.6328C158.547 96.6328 158.898 96.5417 159.227 96.3594C159.56 96.1771 159.81 95.9323 159.977 95.625V94.0312H158.953C158.25 94.0312 157.721 94.1536 157.367 94.3984C157.013 94.6432 156.836 94.9896 156.836 95.4375C156.836 95.8021 156.956 96.0938 157.195 96.3125C157.44 96.526 157.766 96.6328 158.172 96.6328ZM171.047 89.5469V98H169.148V91.0781H166.758L166.602 94.0234C166.503 95.4401 166.229 96.4583 165.781 97.0781C165.339 97.6927 164.659 98 163.742 98H163.156L163.148 96.4219L163.539 96.3828C163.956 96.3255 164.258 96.0729 164.445 95.625C164.638 95.1719 164.76 94.349 164.812 93.1562L164.969 89.5469H171.047ZM175.109 92.2344H176.969C177.661 92.2344 178.266 92.3542 178.781 92.5938C179.297 92.8333 179.688 93.1693 179.953 93.6016C180.224 94.0339 180.359 94.5365 180.359 95.1094C180.359 95.9792 180.052 96.6771 179.438 97.2031C178.823 97.7292 178.005 97.9948 176.984 98H173.211V89.5469H175.109V92.2344ZM175.109 93.7578V96.4844H176.961C177.424 96.4844 177.789 96.3698 178.055 96.1406C178.326 95.9062 178.461 95.5755 178.461 95.1484C178.461 94.7214 178.328 94.3854 178.062 94.1406C177.802 93.8906 177.448 93.763 177 93.7578H175.109ZM189.039 98H187.141V94.5859H183.852V98H181.953V89.5469H183.852V93.0703H187.141V89.5469H189.039V98ZM193.109 92.2344H194.969C195.661 92.2344 196.266 92.3542 196.781 92.5938C197.297 92.8333 197.688 93.1693 197.953 93.6016C198.224 94.0339 198.359 94.5365 198.359 95.1094C198.359 95.9792 198.052 96.6771 197.438 97.2031C196.823 97.7292 196.005 97.9948 194.984 98H191.211V89.5469H193.109V92.2344ZM201.664 98H199.766V89.5469H201.664V98ZM193.109 93.7578V96.4844H194.961C195.424 96.4844 195.789 96.3698 196.055 96.1406C196.326 95.9062 196.461 95.5755 196.461 95.1484C196.461 94.7214 196.328 94.3854 196.062 94.1406C195.802 93.8906 195.448 93.763 195 93.7578H193.109ZM206.977 92.3281L208.586 89.5469H210.695L208.109 93.7109L210.781 98H208.688L207 95.1094L205.32 98H203.211L205.883 93.7109L203.305 89.5469H205.398L206.977 92.3281ZM223.133 98H221.234V94.5859H217.945V98H216.047V89.5469H217.945V93.0703H221.234V89.5469H223.133V98ZM228.117 95.2812L229.836 89.5469H231.859L228.5 99.2812C227.984 100.703 227.109 101.414 225.875 101.414C225.599 101.414 225.294 101.367 224.961 101.273V99.8047L225.32 99.8281C225.799 99.8281 226.159 99.7396 226.398 99.5625C226.643 99.3906 226.836 99.099 226.977 98.6875L227.25 97.9609L224.281 89.5469H226.328L228.117 95.2812ZM240.398 94.6016H239.391V98H237.492V94.6016H236.492L234.547 98H232.219L235.023 93.6016L232.367 89.5469H234.688L236.602 92.8672H237.492V89.5469H239.391V92.8672H240.289L242.211 89.5469H244.531L241.883 93.5781L244.703 98H242.344L240.398 94.6016ZM245.914 96.4844C246.44 95.8958 246.792 95.3385 246.969 94.8125C247.151 94.2812 247.26 93.6042 247.297 92.7812L247.406 89.5469H253.273V96.4844H254.445V100.516H252.555V98H247.133V100.516H245.211L245.219 96.4844H245.914ZM248.141 96.4844H251.383V91.1797H249.25L249.195 92.7969C249.122 94.349 248.771 95.5781 248.141 96.4844Z" fill="#334059"/>
</svg>
