<svg width="10" height="10" viewBox="0 0 10 10" fill="none" xmlns="http://www.w3.org/2000/svg">
<circle cx="5" cy="5" r="5" fill="#0065DD"/>
<path d="M3.09835 4.47004C2.91325 4.26511 2.59708 4.24904 2.39215 4.43413C2.18723 4.61923 2.17115 4.9354 2.35624 5.14033L3.09835 4.47004ZM4.54548 6.81817L4.17443 7.15331C4.27074 7.25995 4.40828 7.31999 4.55197 7.31813C4.69565 7.31626 4.83159 7.25267 4.92511 7.14357L4.54548 6.81817ZM7.65238 3.96175C7.83209 3.75209 7.80781 3.43644 7.59815 3.25672C7.38848 3.07701 7.07283 3.10129 6.89312 3.31096L7.65238 3.96175ZM2.35624 5.14033L4.17443 7.15331L4.91653 6.48303L3.09835 4.47004L2.35624 5.14033ZM4.92511 7.14357L7.65238 3.96175L6.89312 3.31096L4.16585 6.49278L4.92511 7.14357Z" fill="white"/>
</svg>
