<svg width="14" height="32" viewBox="0 0 14 32" fill="none" xmlns="http://www.w3.org/2000/svg">
<path d="M0 13.5098V3.80451L1.16464 2.95044V12.7334L0 13.5098Z" fill="#CCCCCC"/>
<path d="M2.25159 12.1122V2.40692L3.41622 1.55286V11.3358L2.25159 12.1122Z" fill="#CCCCCC"/>
<path d="M4.42566 10.5594V0.854068L5.5903 0V9.78296L4.42566 10.5594Z" fill="#CCCCCC"/>
<path d="M8.30774 31.2123V21.507L9.47238 20.653V30.4359L8.30774 31.2123Z" fill="#CCCCCC"/>
<path d="M10.5593 29.8148V20.1094L11.724 19.2554V29.0383L10.5593 29.8148Z" fill="#CCCCCC"/>
<path d="M12.7334 28.2619V18.5566L13.898 17.7025V27.4855L12.7334 28.2619Z" fill="#CCCCCC"/>
<path d="M8.30774 1.24228L6.75489 0V10.637L0.0776367 15.0626V26.3985L1.4752 27.1749V16.1496L8.30774 11.724V1.24228Z" fill="black"/>
<path d="M13.8981 5.27963L12.3452 4.03735V14.6744L5.66797 19.1V30.4358L7.06553 31.2122V20.187L13.8981 15.7614V5.27963Z" fill="black"/>
<path d="M11.1029 3.41623L9.55006 2.17395V12.811L2.8728 17.2366V28.5724L4.27037 29.3488V18.3236L11.1029 13.898V3.41623Z" fill="black"/>
</svg>
